<?xml version="1.0" encoding="UTF-8"?>
<svg width="1409" height="1409" fill="none" version="1.1" viewBox="0 0 1409 1409" xmlns="http://www.w3.org/2000/svg">
 <g mask="url(#mask28)">
  <rect x="-20.49" y="-36.82" width="1450" height="1482.6" fill="url(#paint0_radial_4210_1844)" fill-opacity=".8"/>
  <g opacity=".5">
   <path d="m1306.3 680.9c0 367.04-298.27 664.58-666.21 664.58-367.94 0-666.21-297.54-666.21-664.58 0-367.03 298.27-664.57 666.21-664.57 367.94 0 666.21 297.54 666.21 664.57z" fill="url(#paint1_radial_4210_1844)" fill-opacity=".52"/>
   <path d="m1450.6 740.22c0 399.79-324.73 723.89-725.3 723.89-400.57 0-725.3-324.1-725.3-723.89 0-399.79 324.73-723.89 725.3-723.89 400.57 0 725.3 324.1 725.3 723.89z" fill="#fff6a1" fill-opacity=".34"/>
   <g display="none" filter="url(#filter0_d_4210_1844)">
    <path d="m805 699.05c0 58.74-47.712 106.36-106.57 106.36s-106.57-47.619-106.57-106.36 47.711-106.36 106.57-106.36 106.57 47.618 106.57 106.36z" fill="url(#paint2_linear_4210_1844)"/>
   </g>
   <g filter="url(#filter1_d_4210_1844)">
    <path d="m426.88 369.24-479.13 17.586h479.13l7.212 420.29 11.45-420.29h488.95l-488.95-17.586-7.936-382.3z" fill="#fff" fill-opacity=".86" shape-rendering="crispEdges"/>
   </g>
   <ellipse cx="759.42" cy="945.56" rx="230.37" ry="230.37" fill="url(#paint3_linear_4210_1844)" fill-opacity=".31" style="mix-blend-mode:color-dodge"/>
   <ellipse cx="917.97" cy="1097.6" rx="75.407" ry="75.406" fill="#fff" fill-opacity=".28628" style="mix-blend-mode:color-dodge"/>
  </g>
  <g filter="url(#filter2_ii_4210_1844)">
   <path d="m854.23 239.32c-104.96 165.32 31.612 218.93-46.113 371.65-5.324 10.461 4.042 22.927 15.143 19.111 160.42-55.149 92.529-160.52 282.11-209.25-182.08 72.05-109.64 191.12-263.07 268.46-10.481 5.284-10.231 20.85 1.003 24.251 161.42 48.871 162.29-82.886 344.28-10.874-189.62-48.744-194.86 96.772-363.66 69.957-11.592-1.841-20.547 10.907-13.479 20.278 102.93 136.46 189.98 46.153 294.93 211.46-124.8-150.96-223.48-52.109-345.35-175.04-8.265-8.336-22.993-3.283-22.759 8.453 3.384 169.92 129.21 140.15 116.97 335.54-12.248-195.47-152.51-165.61-179.16-335.73-1.817-11.597-16.703-16.163-23.393-6.518-96.874 139.66 24.598 191.37-100.14 342.25 104.97-165.34-28.241-225.46 49.945-378.96 5.326-10.459-4.033-22.88-15.09-18.94-160.37 57.144-91.521 180.2-281.12 228.94 182.11-72.061 108.69-208.84 262.1-288.17 10.426-5.391 10.159-20.996-1.077-24.392-161.76-48.894-165.41 82.882-347.4 10.866 189.63 48.747 197.64-96.788 366.79-69.953 11.593 1.839 20.529-10.904 13.394-20.225-102.78-134.27-188.88-26.403-293.8-191.66 124.77 150.92 222.5 34.48 344.22 155.26 8.333 8.268 23.077 3.201 22.813-8.535-3.804-169.1-133.01-132.86-120.76-328.23 12.246 195.45 155.89 159.1 182.95 328.42 1.852 11.592 16.752 16.161 23.447 6.518 96.406-138.87-28.419-184.08 96.303-334.94zm-114.27 348.19c-0.702-2.72-4.058-3.699-6.112-1.783l-30.73 28.644c-1.36 1.268-3.449 1.331-4.884 0.148l-32.404-26.735c-2.166-1.787-5.456-0.607-5.993 2.151l-8.024 41.236-0.038 0.169c-0.421 1.734-2.028 2.931-3.826 2.82l-41.929-2.581c-2.804-0.172-4.772 2.716-3.585 5.262l17.746 38.077 0.07 0.16c0.678 1.65 0.081 3.563-1.438 4.53l-35.44 22.558c-2.369 1.508-2.264 5.001 0.193 6.363l36.738 20.375c1.626 0.902 2.331 2.868 1.649 4.598l-12.91 32.737-2.502 6.344c-1.03 2.613 1.11 5.377 3.898 5.035l41.698-5.111 0.172-0.018c1.779-0.135 3.414 1.024 3.864 2.768l8.798 34.075 1.705 6.601c0.702 2.719 4.058 3.699 6.112 1.784l30.729-28.646 0.13-0.115c1.36-1.155 3.363-1.178 4.753-0.032l32.406 26.734c2.099 1.731 5.252 0.678 5.934-1.896l0.059-0.253 8.023-41.237c0.355-1.824 2.008-3.105 3.864-2.991l41.93 2.582 0.261 7e-3c2.577-0.015 4.356-2.626 3.426-5.029l-0.102-0.239-17.747-38.079c-0.785-1.684-0.199-3.69 1.368-4.688l35.441-22.558 0.215-0.148c2.145-1.578 1.971-4.896-0.408-6.216l-36.74-20.374c-1.625-0.902-2.33-2.869-1.648-4.599l12.91-32.736 2.502-6.344c1.03-2.613-1.109-5.377-3.897-5.036l-41.698 5.112c-1.845 0.226-3.571-0.951-4.036-2.75l-8.799-34.074zm-13.786 46.947c3.612 13.99 17.035 23.135 31.377 21.377l6.018-0.737-2.223 5.64c-5.301 13.442 0.183 28.731 12.819 35.739l5.304 2.941-5.116 3.257-0.566 0.368c-11.576 7.751-15.939 22.702-10.347 35.463l0.278 0.616 2.56 5.495-6.05-0.372-0.675-0.033c-13.922-0.534-26.24 8.998-29.217 22.608l-0.137 0.661-1.159 5.953-4.677-3.859c-11.145-9.195-27.381-8.704-37.951 1.149l-4.435 4.134-1.516-5.871c-3.612-13.99-17.036-23.136-31.378-21.378l-6.019 0.738 2.225-5.641c5.301-13.442-0.183-28.731-12.819-35.738l-5.303-2.942 5.115-3.255c12.19-7.759 16.739-23.352 10.635-36.449l-2.561-5.497 6.052 0.373c14.422 0.888 27.268-9.052 30.028-23.235l1.157-5.952 4.679 3.858c11.145 9.195 27.38 8.704 37.95-1.148l4.434-4.135z" fill="url(#paint4_linear_4210_1844)"/>
   <path d="m854.23 239.32c-104.96 165.32 31.612 218.93-46.113 371.65-5.324 10.461 4.042 22.927 15.143 19.111 160.42-55.149 92.529-160.52 282.11-209.25-182.08 72.05-109.64 191.12-263.07 268.46-10.481 5.284-10.231 20.85 1.003 24.251 161.42 48.871 162.29-82.886 344.28-10.874-189.62-48.744-194.86 96.772-363.66 69.957-11.592-1.841-20.547 10.907-13.479 20.278 102.93 136.46 189.98 46.153 294.93 211.46-124.8-150.96-223.48-52.109-345.35-175.04-8.265-8.336-22.993-3.283-22.759 8.453 3.384 169.92 129.21 140.15 116.97 335.54-12.248-195.47-152.51-165.61-179.16-335.73-1.817-11.597-16.703-16.163-23.393-6.518-96.874 139.66 24.598 191.37-100.14 342.25 104.97-165.34-28.241-225.46 49.945-378.96 5.326-10.459-4.033-22.88-15.09-18.94-160.37 57.144-91.521 180.2-281.12 228.94 182.11-72.061 108.69-208.84 262.1-288.17 10.426-5.391 10.159-20.996-1.077-24.392-161.76-48.894-165.41 82.882-347.4 10.866 189.63 48.747 197.64-96.788 366.79-69.953 11.593 1.839 20.529-10.904 13.394-20.225-102.78-134.27-188.88-26.403-293.8-191.66 124.77 150.92 222.5 34.48 344.22 155.26 8.333 8.268 23.077 3.201 22.813-8.535-3.804-169.1-133.01-132.86-120.76-328.23 12.246 195.45 155.89 159.1 182.95 328.42 1.852 11.592 16.752 16.161 23.447 6.518 96.406-138.87-28.419-184.08 96.303-334.94zm-114.27 348.19c-0.702-2.72-4.058-3.699-6.112-1.783l-30.73 28.644c-1.36 1.268-3.449 1.331-4.884 0.148l-32.404-26.735c-2.166-1.787-5.456-0.607-5.993 2.151l-8.024 41.236-0.038 0.169c-0.421 1.734-2.028 2.931-3.826 2.82l-41.929-2.581c-2.804-0.172-4.772 2.716-3.585 5.262l17.746 38.077 0.07 0.16c0.678 1.65 0.081 3.563-1.438 4.53l-35.44 22.558c-2.369 1.508-2.264 5.001 0.193 6.363l36.738 20.375c1.626 0.902 2.331 2.868 1.649 4.598l-12.91 32.737-2.502 6.344c-1.03 2.613 1.11 5.377 3.898 5.035l41.698-5.111 0.172-0.018c1.779-0.135 3.414 1.024 3.864 2.768l8.798 34.075 1.705 6.601c0.702 2.719 4.058 3.699 6.112 1.784l30.729-28.646 0.13-0.115c1.36-1.155 3.363-1.178 4.753-0.032l32.406 26.734c2.099 1.731 5.252 0.678 5.934-1.896l0.059-0.253 8.023-41.237c0.355-1.824 2.008-3.105 3.864-2.991l41.93 2.582 0.261 7e-3c2.577-0.015 4.356-2.626 3.426-5.029l-0.102-0.239-17.747-38.079c-0.785-1.684-0.199-3.69 1.368-4.688l35.441-22.558 0.215-0.148c2.145-1.578 1.971-4.896-0.408-6.216l-36.74-20.374c-1.625-0.902-2.33-2.869-1.648-4.599l12.91-32.736 2.502-6.344c1.03-2.613-1.109-5.377-3.897-5.036l-41.698 5.112c-1.845 0.226-3.571-0.951-4.036-2.75l-8.799-34.074zm-13.786 46.947c3.612 13.99 17.035 23.135 31.377 21.377l6.018-0.737-2.223 5.64c-5.301 13.442 0.183 28.731 12.819 35.739l5.304 2.941-5.116 3.257-0.566 0.368c-11.576 7.751-15.939 22.702-10.347 35.463l0.278 0.616 2.56 5.495-6.05-0.372-0.675-0.033c-13.922-0.534-26.24 8.998-29.217 22.608l-0.137 0.661-1.159 5.953-4.677-3.859c-11.145-9.195-27.381-8.704-37.951 1.149l-4.435 4.134-1.516-5.871c-3.612-13.99-17.036-23.136-31.378-21.378l-6.019 0.738 2.225-5.641c5.301-13.442-0.183-28.731-12.819-35.738l-5.303-2.942 5.115-3.255c12.19-7.759 16.739-23.352 10.635-36.449l-2.561-5.497 6.052 0.373c14.422 0.888 27.268-9.052 30.028-23.235l1.157-5.952 4.679 3.858c11.145 9.195 27.38 8.704 37.95-1.148l4.434-4.135z" fill="url(#paint5_linear_4210_1844)" fill-opacity=".2"/>
  </g>
 </g>
 <defs>
  <filter id="filter0_d_4210_1844" x="465.81" y="456.84" width="452.18" height="451.77" color-interpolation-filters="sRGB" filterUnits="userSpaceOnUse">
   <feFlood flood-opacity="0" result="BackgroundImageFix"/>
   <feColorMatrix in="SourceAlpha" result="hardAlpha" values="0 0 0 0 0 0 0 0 0 0 0 0 0 0 0 0 0 0 127 0"/>
   <feOffset dx="-6.53146" dy="-16.3286"/>
   <feGaussianBlur stdDeviation="59.7628"/>
   <feComposite in2="hardAlpha" operator="out"/>
   <feColorMatrix values="0 0 0 0 1 0 0 0 0 1 0 0 0 0 1 0 0 0 1 0"/>
   <feBlend in2="BackgroundImageFix" result="effect1_dropShadow_4210_1844"/>
   <feBlend in="SourceGraphic" in2="effect1_dropShadow_4210_1844" result="shape"/>
  </filter>
  <filter id="filter1_d_4210_1844" x="-103.2" y="-57.476" width="1095.2" height="928.6" color-interpolation-filters="sRGB" filterUnits="userSpaceOnUse">
   <feFlood flood-opacity="0" result="BackgroundImageFix"/>
   <feColorMatrix in="SourceAlpha" result="hardAlpha" values="0 0 0 0 0 0 0 0 0 0 0 0 0 0 0 0 0 0 127 0"/>
   <feOffset dx="3.26573" dy="9.79719"/>
   <feGaussianBlur stdDeviation="27.1055"/>
   <feComposite in2="hardAlpha" operator="out"/>
   <feColorMatrix values="0 0 0 0 1 0 0 0 0 1 0 0 0 0 1 0 0 0 0.55 0"/>
   <feBlend in2="BackgroundImageFix" result="effect1_dropShadow_4210_1844"/>
   <feBlend in="SourceGraphic" in2="effect1_dropShadow_4210_1844" result="shape"/>
  </filter>
  <filter id="filter2_ii_4210_1844" x="217" y="237.45" width="972.45" height="937.75" color-interpolation-filters="sRGB" filterUnits="userSpaceOnUse">
   <feFlood flood-opacity="0" result="BackgroundImageFix"/>
   <feBlend in="SourceGraphic" in2="BackgroundImageFix" result="shape"/>
   <feColorMatrix in="SourceAlpha" result="hardAlpha" values="0 0 0 0 0 0 0 0 0 0 0 0 0 0 0 0 0 0 127 0"/>
   <feOffset dx="7.73644" dy="11.7219"/>
   <feGaussianBlur stdDeviation="0.93775"/>
   <feComposite in2="hardAlpha" k2="-1" k3="1" operator="arithmetic"/>
   <feColorMatrix values="0 0 0 0 1 0 0 0 0 1 0 0 0 0 1 0 0 0 0.67 0"/>
   <feBlend in2="shape" result="effect1_innerShadow_4210_1844"/>
   <feColorMatrix in="SourceAlpha" result="hardAlpha" values="0 0 0 0 0 0 0 0 0 0 0 0 0 0 0 0 0 0 127 0"/>
   <feOffset dx="-15.4729" dy="-10.3153"/>
   <feGaussianBlur stdDeviation="0.93775"/>
   <feComposite in2="hardAlpha" k2="-1" k3="1" operator="arithmetic"/>
   <feColorMatrix values="0 0 0 0 0.956863 0 0 0 0 0.984314 0 0 0 0 0.988235 0 0 0 1 0"/>
   <feBlend in2="effect1_innerShadow_4210_1844" result="effect2_innerShadow_4210_1844"/>
  </filter>
  <radialGradient id="paint0_radial_4210_1844" cx="0" cy="0" r="1" gradientTransform="matrix(0 -741.32 724.99 0 704.5 704.5)" gradientUnits="userSpaceOnUse">
   <stop stop-color="#F6CC1A" offset=".32692"/>
   <stop stop-color="#E3AA0A" offset="1"/>
  </radialGradient>
  <radialGradient id="paint1_radial_4210_1844" cx="0" cy="0" r="1" gradientTransform="matrix(10.055 434.3 -427.13 10.224 -16.071 346.99)" gradientUnits="userSpaceOnUse">
   <stop stop-color="#E0D146" offset="0"/>
   <stop stop-color="#FFF6A1" stop-opacity=".885" offset=".92308"/>
   <stop stop-color="#FFF6A1" stop-opacity="0" offset="1"/>
  </radialGradient>
  <linearGradient id="paint2_linear_4210_1844" x1="591.87" x2="595.2" y1="576.11" y2="715.12" gradientUnits="userSpaceOnUse">
   <stop stop-color="#FFD773" offset="0"/>
   <stop stop-color="#FFF6A1" offset=".83654"/>
  </linearGradient>
  <linearGradient id="paint3_linear_4210_1844" x1="759.42" x2="759.42" y1="715.19" y2="1175.9" gradientUnits="userSpaceOnUse">
   <stop stop-color="#999" stop-opacity="0" offset="0"/>
   <stop stop-color="#fff" offset=".71154"/>
  </linearGradient>
  <linearGradient id="paint4_linear_4210_1844" x1="141.05" x2="1187.6" y1="105.93" y2="1329.2" gradientUnits="userSpaceOnUse">
   <stop stop-color="#F3FBFD" offset=".048077"/>
  </linearGradient>
  <linearGradient id="paint5_linear_4210_1844" x1="353.92" x2="972.6" y1="380.69" y2="1106.5" gradientUnits="userSpaceOnUse">
   <stop stop-color="#DAE0E2" offset="0"/>
   <stop stop-color="#fff" offset=".52404"/>
   <stop stop-color="#E9ECED" offset="1"/>
  </linearGradient>
  <mask id="mask28" maskUnits="userSpaceOnUse">
   <path d="m704.5 0 610.11 352.25v704.5l-610.11 352.25-610.11-352.25v-704.5z" fill="#fff"/>
  </mask>
 </defs>
</svg>
