<?xml version="1.0" encoding="UTF-8"?>
<svg width="1247" height="1270" fill="none" version="1.1" viewBox="0 0 1247 1270" xmlns="http://www.w3.org/2000/svg">
 <g filter="url(#filter0_d_4210_1950)" mask="url(#mask41)">
  <rect x="-17.266" y="-30.961" width="1282.7" height="1311.6" fill="url(#paint0_radial_4210_1950)" fill-opacity=".8"/>
  <circle cx="622.71" cy="625.36" r="274.61" stroke="url(#paint1_linear_4210_1950)" stroke-width="18.914"/>
  <circle cx="622.49" cy="625.14" r="146.27" stroke="url(#paint2_linear_4210_1950)" stroke-width="18.914"/>
  <g filter="url(#filter1_ii_4210_1950)">
   <path d="m622.64 234.82c120.98 0-88.498 271.27 26.527 308.66 115.03 37.386 104.93-305.17 202.83-234.11 97.899 71.063-231 167.43-159.91 265.3 71.089 97.876 264.25-185.16 301.66-70.143 37.409 115.02-285.26-0.365-285.26 120.62 0 120.98 322.67 5.595 285.26 120.62-37.405 115.02-230.57-168.02-301.66-70.143-71.09 97.877 257.8 194.24 159.91 265.3-97.895 71.062-87.803-271.5-202.83-234.11-115.02 37.385 94.454 308.65-26.527 308.65-120.98 0 88.498-271.27-26.528-308.65-115.02-37.386-104.93 305.17-202.83 234.11-97.899-71.063 231-167.43 159.91-265.3-71.089-97.876-264.25 185.16-301.66 70.143-37.407-115.02 285.26 0.365 285.26-120.62 0-120.98-322.67-5.596-285.26-120.62 37.405-115.02 230.57 168.02 301.66 70.143 71.09-97.877-257.8-194.24-159.91-265.3 97.895-71.059 87.803 271.5 202.83 234.11 115.03-37.385-94.454-308.66 26.528-308.66z" fill="url(#paint3_radial_4210_1950)"/>
  </g>
  <path d="m622.64 823.85c4.411 16.837 9.861 34.243 15.266 51.379 11.439 36.26 22.673 71.298 23.5 97.272 0.414 12.984-1.776 23.657-7.798 31.08-6.013 7.42-15.89 11.64-30.968 11.64s-24.955-4.22-30.969-11.64c-6.021-7.423-8.21-18.096-7.797-31.08 0.827-25.974 12.061-61.012 23.5-97.272 5.406-17.136 10.855-34.542 15.266-51.379zm-116.78-37.927c-6.318 16.2-12.131 33.467-17.821 50.491-12.051 36.056-23.55 71.007-38.144 92.51-7.296 10.749-15.34 18.098-24.575 20.569-9.223 2.468-19.698 0.086-31.898-8.77-12.202-8.857-17.712-18.076-18.222-27.606-0.51-9.541 3.989-19.46 11.952-29.72 15.931-20.523 45.609-42.267 76.171-64.88 14.441-10.685 29.076-21.564 42.537-32.594zm233.55-1e-3c13.462 11.03 28.098 21.909 42.539 32.595 30.563 22.613 60.241 44.357 76.171 64.88 7.964 10.26 12.462 20.179 11.951 29.72-0.509 9.53-6.02 18.749-18.221 27.606-12.201 8.856-22.676 11.238-31.899 8.77-9.235-2.471-17.278-9.82-24.573-20.569-14.594-21.503-26.095-56.454-38.146-92.51-5.689-17.024-11.503-34.292-17.822-50.492zm-116.77-59.326c0.891 1.389 1.71 2.828 2.458 4.318 5.49 10.943 7.216 24.559 6.43 39.882-0.801 15.636-4.218 33.024-8.888 51.12-4.671-18.096-8.087-35.484-8.889-51.12-0.785-15.323 0.94-28.939 6.431-39.882 0.747-1.49 1.567-2.929 2.458-4.318zm59.616-19.378c1.536 0.599 3.045 1.281 4.524 2.047 10.872 5.623 20.268 15.621 28.636 28.476 8.546 13.13 16.003 29.219 22.862 46.619-14.415-11.898-27.399-23.962-37.238-36.146-9.64-11.938-16.246-23.97-18.235-36.053-0.271-1.646-0.453-3.294-0.549-4.943zm-119.23 0c-0.096 1.649-0.277 3.297-0.548 4.943-1.989 12.083-8.595 24.115-18.235 36.053-9.839 12.184-22.823 24.247-37.239 36.145 6.859-17.4 14.317-33.488 22.863-46.618 8.368-12.855 17.764-22.853 28.635-28.476 1.48-0.766 2.988-1.448 4.524-2.047zm-129.37-20.65c-14.622 9.386-29.463 19.929-44.06 30.348-30.939 22.083-60.78 43.595-85.221 52.412-12.217 4.408-23.041 5.625-31.962 2.196-8.909-3.424-15.979-11.507-20.641-25.842-4.662-14.336-3.7-25.03 1.49-33.037 5.196-8.018 14.665-13.395 27.138-17.012 24.949-7.236 61.735-7.379 99.746-7.706 17.942-0.155 36.155-0.352 53.51-1.359zm377.98 0c17.355 1.007 35.568 1.204 53.51 1.359 38.011 0.327 74.796 0.469 99.746 7.705 12.472 3.617 21.941 8.995 27.138 17.013 5.189 8.007 6.152 18.702 1.49 33.037-4.662 14.334-11.733 22.418-20.642 25.842-8.92 3.429-19.745 2.212-31.963-2.196-24.44-8.817-54.282-30.329-85.22-52.412-14.597-10.419-29.437-20.963-44.059-30.348zm-188.99-161.99c5.712 8.595 14.277 15.169 26.453 19.126 12.175 3.957 22.967 3.675 32.639 0.081-0.429 10.313 2.638 20.667 10.162 31.026s16.419 16.476 26.354 19.256c-6.405 8.091-10.006 18.271-10.006 31.075 0 12.803 3.601 22.982 10.006 31.073-9.935 2.78-18.83 8.899-26.354 19.258s-10.591 20.712-10.162 31.024c-9.672-3.594-20.464-3.875-32.639 0.082s-20.741 10.53-26.453 19.125c-5.712-8.595-14.277-15.168-26.452-19.125-12.176-3.957-22.968-3.677-32.64-0.083 0.429-10.312-2.639-20.665-10.162-31.023-7.524-10.36-16.42-16.478-26.356-19.258 6.405-8.091 10.007-18.27 10.007-31.073 0-12.804-3.601-22.983-10.007-31.075 9.936-2.779 18.832-8.897 26.356-19.256s10.591-20.713 10.162-31.025c9.672 3.594 20.464 3.876 32.64-0.082 12.175-3.957 20.74-10.531 26.452-19.126zm-141.23 137.11c14.325-5.48 27.803-8.043 39.904-6.2 1.647 0.251 3.269 0.587 4.866 1.005-1.047 1.279-2.162 2.506-3.349 3.679-8.708 8.607-21.121 14.458-35.933 18.449-15.132 4.077-32.742 6.203-51.414 7.354 15.786-10.052 31.286-18.688 45.926-24.287zm242.55-6.2c12.1-1.843 25.578 0.72 39.903 6.2 14.64 5.599 30.14 14.235 45.925 24.287-18.672-1.151-36.281-3.277-51.412-7.354-14.812-3.991-27.225-9.842-35.934-18.449-1.187-1.173-2.302-2.4-3.348-3.679 1.596-0.418 3.218-0.754 4.866-1.005zm-288.48-91.174c18.672 1.151 36.282 3.277 51.414 7.354 14.812 3.991 27.225 9.843 35.933 18.449 1.187 1.173 2.303 2.399 3.35 3.677-1.597 0.419-3.219 0.756-4.867 1.007-12.101 1.844-25.579-0.72-39.904-6.199-14.64-5.6-30.14-14.237-45.926-24.288zm374.31 0c-15.786 10.051-31.285 18.688-45.925 24.288-14.325 5.479-27.803 8.043-39.903 6.199-1.648-0.251-3.271-0.588-4.867-1.007 1.046-1.278 2.163-2.504 3.349-3.677 8.709-8.606 21.122-14.458 35.934-18.449 15.131-4.077 32.74-6.203 51.412-7.354zm-537.38-85.554c8.921-3.429 19.745-2.21 31.962 2.197 24.441 8.817 54.282 30.329 85.221 52.412 14.597 10.419 29.438 20.962 44.06 30.347-17.355-1.007-35.568-1.203-53.51-1.357-38.011-0.328-74.797-0.471-99.746-7.707-12.473-3.617-21.942-8.995-27.138-17.012-5.19-8.007-6.152-18.702-1.49-33.037s11.732-22.419 20.641-25.843zm668.5 2.197c12.218-4.407 23.043-5.626 31.963-2.197 8.909 3.424 15.98 11.508 20.642 25.843s3.699 25.03-1.49 33.037c-5.197 8.017-14.666 13.395-27.138 17.012-24.95 7.237-61.735 7.379-99.746 7.707-17.943 0.154-36.157 0.35-53.512 1.357 14.622-9.385 29.463-19.928 44.061-30.347 30.938-22.083 60.78-43.595 85.22-52.412zm-433.91-15.032c14.416 11.899 27.4 23.963 37.239 36.146 9.64 11.938 16.246 23.97 18.235 36.053 0.271 1.646 0.452 3.294 0.548 4.943-1.536-0.6-3.045-1.281-4.524-2.046-10.871-5.623-20.267-15.622-28.635-28.477-8.546-13.13-16.004-29.219-22.863-46.619zm231.28 0c-6.859 17.4-14.316 33.489-22.862 46.619-8.368 12.855-17.764 22.854-28.636 28.477-1.479 0.765-2.988 1.446-4.524 2.046 0.096-1.649 0.278-3.297 0.549-4.943 1.989-12.083 8.595-24.115 18.235-36.053 9.839-12.183 22.823-24.247 37.238-36.146zm-115.64-37.558c4.671 18.097 8.087 35.485 8.888 51.122 0.786 15.323-0.94 28.939-6.43 39.882-0.748 1.49-1.568 2.929-2.458 4.318-0.891-1.389-1.711-2.828-2.458-4.318-5.491-10.943-7.216-24.559-6.431-39.882 0.802-15.637 4.218-33.025 8.889-51.122zm197.31-127.58c9.223-2.468 19.698-0.085 31.899 8.771s17.712 18.075 18.221 27.605c0.51 9.542-3.987 19.46-11.951 29.72-15.93 20.524-45.608 42.267-76.171 64.881-14.441 10.685-29.078 21.564-42.54 32.594 6.319-16.2 12.133-33.468 17.823-50.493 12.051-36.056 23.552-71.005 38.146-92.509 7.295-10.749 15.338-18.098 24.573-20.569zm-426.53 8.771c12.201-8.857 22.675-11.239 31.898-8.771 9.235 2.471 17.279 9.82 24.575 20.569 14.594 21.504 26.093 56.453 38.144 92.509 5.69 17.024 11.503 34.292 17.821 50.492-13.461-11.029-28.096-21.908-42.537-32.593-30.562-22.614-60.241-44.357-76.172-64.881-7.963-10.26-12.461-20.178-11.951-29.72 0.51-9.53 6.02-18.749 18.222-27.605zm229.21-74.499c15.078 0 24.955 4.225 30.968 11.639 6.022 7.424 8.212 18.096 7.798 31.08-0.827 25.974-12.06 61.014-23.5 97.274-5.405 17.135-10.855 34.54-15.266 51.378-4.411-16.838-9.86-34.243-15.266-51.378-11.439-36.26-22.673-71.3-23.5-97.274-0.413-12.984 1.776-23.656 7.797-31.08 6.014-7.414 15.891-11.639 30.969-11.639z" stroke="#5d9cb3" stroke-width=".48498"/>
  <g fill-opacity=".3">
   <path d="m149.71 464.5c-8.486 23.264-19.325 52.309-22.488 76.934-0.046 0.343-0.091 0.686-0.136 1.029-1.304 10.021-2.111 20.3-2.585 32.724-0.059 1.583-0.11 3.205-0.155 4.861-0.375 14.705-0.42 32.778 1.268 57.161 5.685 81.789 22.956 144.06 28.216 163.57 11.036 38.864 28.6 79.248 61.94 127.96 3.074 4.446 6.301 8.947 9.664 13.496 2.731 3.697 6.586 5.511 8.544 4.097 1.959-1.417 1.316-5.464-1.365-9.087-3.242-4.378-6.338-8.705-9.296-12.972-0.014-0.019-0.027-0.039-0.041-0.058-33.006-48.145-49.82-87.014-60.55-124.25-5.339-19.569-22.946-82.218-28.459-164.53-1.615-24.21-1.501-42.143-1.081-56.678 0.049-1.592 0.102-3.146 0.164-4.656 1e-3 -0.036 2e-3 -0.072 3e-3 -0.107 0.51-12.264 1.311-21.956 2.552-31.354 0.029-0.2 0.058-0.399 0.087-0.599 3.183-24.448 13.856-52.34 21.93-74.486 1.52-4.241 1-8.39-1.252-9.278-2.25-0.885-5.405 1.897-6.96 6.227zm997.04 288.79c7.15-24.675 9.46-59.11 7.34-89.174-1.92-30.336-7.97-57.207-11.48-69.585-3.4-12.128-6.34-25.656-10.39-41.668-0.93-3.67-1.92-7.476-2.99-11.391-3.53-12.932-7.94-27.213-13.95-42.443-22.35-55.808-42.73-89.225-57.23-112.9-3.04-4.869-5.91-9.324-8.66-13.483 0-7e-3 -0.01-0.014-0.01-0.021-10.41-15.696-18.85-26.932-27.71-36.326-15.81-16.631-29.624-29.386-47.653-42.734-24.717-18.617-58.212-45.856-80.607-63.729-1.218-0.994-2.467-2.013-3.741-3.034-1.923-1.544-3.914-3.119-5.987-4.731-15.458-11.925-34.881-25.982-65.185-41.454-28.568-14.479-55.244-23.177-79.073-29.071-6.861-1.694-13.428-3.132-19.735-4.406-15.978-3.221-30.332-5.381-43.882-7.47-84.355-12.121-133.8-1.188-163.21 5.943-22.772 6.062-34.748 11.861-43.312 15.947-2.588 1.253-4.856 2.385-7.003 3.393-19.109 9.022-36.541 16.76-56.744 27.444-4.475 2.379-9.086 4.921-13.843 7.674-15.891 9.219-27.831 15.647-37.355 20.512-4.161 2.136-7.847 3.992-11.314 5.776-0.065 0.031-0.129 0.063-0.194 0.095-0.483 0.249-0.96 0.501-1.435 0.748-0.358 0.186-0.719 0.364-1.076 0.552-0.157 0.047-0.292 0.099-0.395 0.134-0.081 0.028-0.144 0.051-0.184 0.066-9e-3 1e-3 -0.017 2e-3 -0.026 4e-3 -0.733 0.265-1.321 0.562-1.442 0.623-0.211 0.106-0.392 0.209-0.485 0.26-0.495 0.269-1.117 0.643-1.528 0.894-1.056 0.648-2.882 1.787-5.674 3.603-2.481 1.505-4.904 2.888-7.926 4.654-0.191 0.11-0.381 0.221-0.572 0.332-2.945 1.728-6.359 3.773-10.565 6.497-3.831 2.479-6.12 6.431-5.141 8.735 0.982 2.306 4.788 2.12 8.532-0.323 3.882-2.533 7.023-4.43 9.902-6.135 0.183-0.107 0.366-0.215 0.549-0.321 3.011-1.778 5.877-3.432 8.908-5.286 1.015-0.621 2.057-1.268 3.027-1.875 1.779-1.044 3.841-2.169 6.327-3.477 0.498-0.262 1.01-0.537 1.538-0.811 3.387-1.763 7.355-3.776 11.793-6.071 10.402-5.359 23.351-12.367 40.374-22.174 4.47-2.569 8.854-4.972 13.178-7.258 19.947-10.505 38.357-18.651 58.385-27.936 2.754-1.27 5.384-2.55 8.216-3.889 8.408-3.914 18.514-8.708 39.237-14.163 27.568-6.552 75.009-17.234 157.52-5.515 13.988 2.131 29.054 4.414 45.026 7.667 6.08 1.238 12.305 2.629 18.643 4.197 23.072 5.714 48.479 14.006 75.664 27.68 31.037 15.75 50.242 29.841 65.816 41.904 1.027 0.802 2.035 1.597 3.027 2.384 0.552 0.441 1.103 0.883 1.652 1.326 0.684 0.547 1.362 1.093 2.031 1.633 23.598 18.632 58.653 47.09 85.417 67.48 16.895 12.662 29.883 24.698 45.303 41.002 7.56 8.089 14.68 17.49 24.78 32.589 2.83 4.241 5.86 8.903 9.16 14.182 14.55 23.692 34.9 57.063 57.05 112.6 5.69 14.513 9.85 27.946 13.32 40.588 1.07 3.927 2.08 7.801 3.04 11.599 4 15.822 7.21 30.66 11 44.477 3.14 11.327 8.83 36.918 10.62 65.934 1.98 29.176-0.35 60.422-6.36 81.801-0.61 2.221-1.24 4.456-1.89 6.683-5.53 19.207-12.46 38.246-20.79 52.434-22.05 30.644-42.85 73.485-69.35 115.72-26.37 42.794-58.541 83.931-89.208 111.73-0.794 0.73-1.59 1.46-2.388 2.18-71.007 63.86-139.45 85.85-161.25 93.36-1.046 0.35-2 0.66-2.856 0.93-0.765 0.25-1.459 0.46-2.069 0.66-9.161 2.9-17.439 4.96-26.133 6.88-0.475 0.11-0.95 0.21-1.425 0.32-9.201 2-18.89 3.89-30.339 6.11-42.647 8.18-78.327 9.13-108.89 7.78-5.659-0.26-11.163-0.61-16.53-1.04h-0.047c-23.494-1.9-44.244-5.17-63.7-8.98-35.536-7.11-58.736-15.59-76.408-22.62-5.576-2.25-10.597-4.4-15.347-6.52-10.281-4.6-19.076-8.9-28.166-13.36-17.085-8.42-32.174-17.4-46.62-26.91-1.291-0.85-2.58-1.7-3.864-2.56-0.38-0.25-0.76-0.51-1.14-0.77-15.213-10.27-29.681-21.06-44.653-32.83-3.573-2.8-7.703-3.63-9.283-1.79-1.572 1.84 0.05 5.7 3.688 8.56 15.156 11.93 29.822 22.91 45.678 33.61h1e-3c1.31 0.88 2.627 1.77 3.95 2.64 14.643 9.68 30.246 19.01 47.929 27.74 8.917 4.39 17.336 8.52 27.584 13.15 4.888 2.2 10.112 4.47 16.088 6.89 18.245 7.3 42.128 16.07 78.626 23.4 19.548 3.84 40.386 7.15 64.265 9.12 5.493 0.45 11.145 0.82 16.972 1.09 31.168 1.43 67.654 0.49 111.29-7.85 11.009-2.13 20.358-3.93 29.686-5.93 0.523-0.12 1.046-0.23 1.568-0.35 8.772-1.92 17.673-4.1 27.524-7.21 1.315-0.42 2.993-0.96 5.009-1.62 22.222-7.65 92.197-30.05 164.78-95.35 0.221-0.2 0.443-0.4 0.664-0.61 47.761-44.174 67.631-75.474 85.021-97.034 4.28-5.486 8.05-10.708 11.42-15.658 7.24-10.638 12.47-19.684 16.87-27.858 1.23-2.273 2.37-4.43 3.43-6.494 4.59-8.898 8.01-16.096 11.74-23.123 11.19-21.314 19.73-36.595 31.14-55.351 9.67-15.993 17.51-37.281 23.15-56.448 0.01-0.029 0.02-0.058 0.03-0.086 0.67-2.273 1.32-4.516 1.94-6.711zm-889.46-470.03c-3.274 3.3-4.468 7.408-2.728 9.106 1.746 1.698 5.718 0.397 8.926-2.835 7.671-7.737 15.599-15.199 23.79-22.392 3.432-3.017 5.006-6.92 3.455-8.8-1.554-1.876-5.71-0.964-9.218 2.116-8.34 7.324-16.415 14.926-24.225 22.805zm928.6 498.88c1.47-4.975 0.86-10.372-1.27-11.943-2.14-1.569-4.93 1.19-6.34 6.103-0.75 2.602-2.02 6.844-3.86 12.52-9.22 28.899-33.91 95.493-81.2 162.33-19.23 27.49-41.9 54.999-67.07 80.619-7.27 7.41-14.04 13.84-20.58 19.77-28.604 24.78-54.494 41.3-116.29 76.4-165.31 92.04-380.64 87.47-544.66-15.55-96.472-59.05-174.54-149.57-217.03-254.81-33.32-81.916-48.695-170.66-42.625-258.42 0.1393-74.215 46.085-202.55 65.118-228.53 2.443-4.339 2.815-8.849 0.734-10.1-2.079-1.247-5.859 1.302-8.347 5.723-19.204 26.215-65.902 156.26-66.163 231.44-6.29 89.061 9.1549 179.08 42.783 262.21 43.087 107.28 121.3 200.64 219.26 262.82 165.56 108.04 388.71 118.09 560.49 22.29 63.749-36.33 82.678-61.07 111.57-85.93 6.68-6.02 13.62-12.56 21.11-20.16 26.06-26.4 49.47-54.776 69.24-83.054 46.58-65.91 71.4-131.25 80.97-160.52 1.96-5.937 3.34-10.429 4.16-13.21zm-9.66-244.22c-12.45-57.652-45.82-135.96-88.6-195.07-20.47-29.042-42.2-53.942-60.52-72.841-28.52-29.226-49.734-43.922-70.897-57.758-0.226-0.147-0.453-0.293-0.68-0.44-14.41-9.227-29.062-17.968-48.118-28.942-9.042-5.186-18.924-10.748-30.417-16.929-35.936-19.541-87.615-43.442-143.12-57.844-0.043-0.011-0.087-0.021-0.13-0.031-54.833-14.779-113.02-24.175-155.2-21.716-147.78 9.5688-226.3 66.302-261.43 92.191-62.002 47.192-132.73 105.03-165.36 179.5-2.538 8.734 10.562-0.435 17.751-14.563 0.274-0.506 0.548-1.01 0.823-1.514 2.649-4.812 5.063-9.014 8.741-14.67 5.501-8.049 9.956-13.83 14.075-19.036 8.316-15.881 94.362-100.99 131.5-124.19 33.374-24.078 112.33-68.992 255.28-78.171 39.661-2.283 96.013-4.039 150.74 10.516 0.149 0.038 0.298 0.077 0.447 0.116 54.276 13.994 105.74 37.599 141.73 57.178 11.282 6.064 21.053 11.561 30.011 16.706 19.983 11.522 35.186 20.663 49.791 30.087 0.207 0.133 0.414 0.266 0.621 0.4 20.612 13.578 40.498 27.488 67.556 55.197 18.44 19.02 40.05 43.877 60.29 72.699 41.82 58.059 74.2 134.12 86.46 190.37 1.17 5.055 3.99 8.928 6.39 8.631 2.4-0.3 3.46-4.728 2.27-9.873zm52.51-14.06c-30.25-166.99-143.44-317.5-287.91-396.18-10.833-6.03-21.684-11.623-32.753-16.905-40.166-22.054-99.563-47.005-161.81-60.674-0.701-0.1543-1.403-0.3074-2.105-0.4592-61.476-13.869-124.39-16.47-169.06-13.846-160.24 10.383-248.55 67.941-287.62 96.3-36.444 28.47-45.652 37.112-60.387 48.863-0.394 0.329-0.788 0.659-1.181 0.99-0.031 0.016-0.062 0.032-0.092 0.048-0.569 0.324-1.028 0.622-1.26 0.779-0.474 0.32-0.844 0.602-0.982 0.707-0.321 0.243-0.58 0.459-0.672 0.535-0.38 0.31-0.808 0.673-1.081 0.91-2.558 2.196-10.355 9.257-16.25 15.157-6.05 6.033-10.15 10.626-14.338 15.469-0.424 0.492-0.847 0.986-1.27 1.48-3.763 4.401-7.821 9.221-13.622 16.205-3.519 4.249-4.493 8.658-2.285 9.808 2.22 1.139 6.721-1.318 10.217-5.499 6.031-7.214 10.306-12.243 14.048-16.579 0.414-0.481 0.83-0.962 1.247-1.441 3.985-4.564 7.576-8.529 12.865-13.79 7.806-7.444 13.925-12.668 19.562-17.356 15.012-12.004 25.541-21.795 63.318-50.976 36.727-26.073 121.18-82.209 280.17-92.771 44.131-2.6029 106.24-0.0256 166.81 13.638 0.71 0.1576 1.42 0.3165 2.13 0.4766 61.422 13.491 119.92 38.064 159.46 59.762 10.675 5.783 21.078 11.833 31.421 18.267 139.35 86.466 239.4 227.43 284.73 388.25 7.54 32.23 12.14 62.212 14.7 90.126 7.16 82.194-1.35 146.56-20.47 203.32-4.34 12.33-13.38 45.673-33.85 90.481-6.02 13.122-13.06 27.237-21.39 42.15-5.44 9.739-11.37 19.704-17.98 30.029-18.04 28.217-40.61 58.147-68.64 87.417-7.97 8.32-15.44 15.6-22.64 22.29-31.42 27.88-56.038 51.02-125.22 91.24-84.113 53.26-249.69 86.52-338.3 75.27-44.232-3.27-68.986-8.36-86.436-11.64-4.857-0.95-9.129-1.84-13.047-2.69-10.264-2.26-18.09-4.16-28.366-7.11-56.73-16.83-98.456-36.66-147.29-68.2-14.554-9.55-29.52-20.24-45.384-32.84-4.302-3.42-9.222-4.92-11.024-3.26-1.799 1.66 0.271 5.94 4.627 9.42 16.475 13.14 32.053 24.28 47.215 34.22 49.259 31.8 91.939 52.14 149.83 69.27 10.875 3.12 19.393 5.16 29.985 7.46 3.916 0.84 8.1 1.7 12.771 2.62 17.416 3.24 42.251 8.33 86.882 11.6 89.721 11.35 257.42-22.37 342.56-76.23 69.552-40.39 94.118-63.37 125.97-91.49 7.34-6.78 15-14.19 23.18-22.69 28.98-30.11 52.27-60.97 70.81-89.973 6.41-10.033 12.2-19.744 17.51-29.201 8.49-15.111 15.64-29.367 21.76-42.631 21.24-46.382 29.75-78.225 33.66-88.907 20.52-59.455 29.43-127.67 21.88-211.79-2.62-28.002-7.25-57.781-14.61-89.429zm-1161 364.33c2.1518 5.169 5.8811 8.786 8.2216 8.113 2.3421-0.676 2.4357-5.315 0.308-10.396-11.202-26.86-17.554-46.835-22.201-62.486-8.3637-29.045-11.311-43.353-15.941-64.689-11.647-55.207-14.775-110.12-11.756-159.05 4.7982-81.646 26.374-145.52 38.812-178.16 1.9564-5.158 1.8041-10.04-0.4413-10.95-2.2376-0.913-5.7473 2.561-7.737 7.805-12.527 32.905-34.304 97.266-39.287 179.83-3.1394 49.727-0.0574 105.65 11.808 162.03 4.5487 21.001 7.3451 34.709 15.539 63.552 4.6565 15.874 11.066 36.402 22.676 64.405z" fill="url(#paint4_linear_4210_1950)"/>
   <path d="m323.3 906.73c13.219 14.889 28.721 34.574 45.114 46.113 0.227 0.161 0.455 0.323 0.683 0.484 6.629 4.676 13.765 9.091 22.461 14.005 1.113 0.63 2.259 1.266 3.428 1.913 10.397 5.723 23.257 12.45 41.103 20.449 59.679 26.736 108.13 41.226 123.57 45.916 30.746 8.92 65.434 13.12 111.77 9.51 4.232-0.35 8.577-0.79 13.002-1.31 3.593-0.41 6.214-3.1 5.863-5.93-0.353-2.84-3.455-4.75-6.936-4.35-4.211 0.5-8.348 0.91-12.369 1.25h-0.055c-45.35 3.57-78.378-0.49-107.62-8.9-15.38-4.64-63.709-18.97-123.27-45.721-17.567-7.892-30.229-14.552-40.428-20.185-1.117-0.62-2.205-1.227-3.254-1.82-0.025-0.013-0.05-0.027-0.075-0.041-8.533-4.841-15.187-8.972-21.375-13.343l-0.39-0.285c-16.156-11.38-30.802-30.388-43.302-44.455-2.409-2.682-6.132-3.435-8.354-1.624-2.217 1.81-2.038 5.561 0.437 8.324zm564.32-590.37c-13.984-16.003-37.732-31.695-60.231-42.127-22.635-10.685-44.516-16.648-54.911-18.746-10.166-2.075-20.963-5.403-33.928-9.05-2.973-0.835-6.059-1.684-9.259-2.523-10.57-2.774-22.442-5.471-35.645-7.268-48.506-6.343-80.04-5.597-102.52-5.104-4.624 0.144-8.933 0.329-12.948 0.556-7e-3 0-0.014 1e-3 -0.021 1e-3 -15.178 0.881-26.474 2.236-36.544 5.067-17.823 5.103-32.096 10.323-48.106 18.827-22.149 11.528-53.867 24.215-75.499 32.233-1.191 0.426-2.414 0.862-3.647 1.315-1.864 0.686-3.778 1.406-5.751 2.171-14.634 5.736-32.423 13.472-55.132 28.803-21.346 14.513-37.371 30.526-50.13 45.614-3.668 4.34-7.026 8.57-10.181 12.686-7.977 10.416-14.581 20.056-20.989 29.025-39.297 56.318-48.099 96.609-52.356 120.65-2.901 18.854-1.988 29.749-1.373 37.489 0.199 2.345 0.403 4.412 0.521 6.34 1.091 17.172 1.169 32.468 2.482 50.784 0.3 4.056 0.676 8.27 1.163 12.661 1.644 14.649 1.964 25.467 1.863 34.046-0.038 3.75-0.134 7.081-0.204 10.2-2e-3 0.058-5e-3 0.116-8e-3 0.173-9e-3 0.436-0.013 0.869-0.02 1.298-6e-3 0.325-0.022 0.649-0.026 0.973-0.039 0.131-0.06 0.248-0.081 0.335-0.016 0.069-0.027 0.123-0.035 0.157-3e-3 7e-3 -7e-3 0.014-0.01 0.021-0.134 0.626-0.154 1.158-0.159 1.266-8e-3 0.191-2e-3 0.358-1e-3 0.444 2e-3 0.453 0.042 1.034 0.073 1.419 0.079 0.991 0.237 2.711 0.536 5.37 0.153 2.324 0.206 4.586 0.293 7.388l0.015 0.531c0.09 2.739 0.228 5.95 0.57 9.972 0.312 3.666 2.991 6.629 5.912 6.59 2.922-0.038 4.978-2.977 4.668-6.54-0.323-3.697-0.452-6.632-0.548-9.307-5e-3 -0.17-9e-3 -0.34-0.014-0.509-0.094-2.786-0.162-5.428-0.358-8.259-0.066-0.947-0.145-1.922-0.225-2.831-0.077-1.644-0.081-3.521-0.049-5.764 7e-3 -0.451 7e-3 -0.914 0.017-1.389 0.059-3.043 0.163-6.587 0.195-10.57 0.091-9.322-0.284-20.969-2.009-36.523-0.448-4.088-0.798-8.058-1.083-11.941-1.283-17.935-1.37-33.948-2.428-51.768-0.141-2.446-0.357-4.815-0.558-7.355-0.547-7.529-1.267-16.624 1.37-33.629 4.022-22.318 12.226-60.749 50.232-115.38 6.54-9.183 13.409-19.199 21.335-29.511 3.013-3.922 6.192-7.885 9.548-11.856 12.236-14.472 27.361-29.579 47.411-43.275 22.984-15.57 40.582-23.006 55.234-28.672 0.972-0.371 1.93-0.732 2.877-1.084 0.53-0.194 1.06-0.386 1.589-0.578 0.656-0.24 1.308-0.477 1.953-0.71 22.466-8.419 55.265-21.533 79.167-33.882 14.975-7.884 28.271-12.752 45.566-17.676 8.553-2.378 17.955-3.546 32.451-4.445 4.064-0.243 8.544-0.461 13.517-0.621 22.298-0.509 53.5-1.246 101.35 5.039 12.475 1.709 23.556 4.217 33.814 6.897 3.186 0.834 6.306 1.685 9.359 2.542 12.717 3.57 24.455 7.217 35.934 9.605 9.438 1.937 30.115 7.582 51.614 17.75 21.678 10.099 42.966 24.426 55.057 38.119 1.26 1.416 2.526 2.846 3.778 4.285 10.798 12.368 20.889 25.572 26.508 38.195 9.403 31.197 29.953 63.079 49.684 97.836 20.112 34.85 38.66 72.275 47.829 104.15 0.25 0.827 0.49 1.655 0.73 2.483 20.87 73.497 13.05 130.09 10.82 148.28-0.12 0.866-0.23 1.654-0.33 2.362-0.09 0.632-0.17 1.203-0.25 1.706-1.09 7.558-2.6 14.167-4.35 21.012-0.09 0.374-0.19 0.748-0.29 1.122-1.87 7.242-3.98 14.76-6.33 23.693-8.792 33.209-20.557 58.809-32.233 79.843-2.171 3.895-4.344 7.643-6.531 11.258-6e-3 0.011-0.012 0.022-0.019 0.032-9.608 15.853-19.213 29.187-28.711 41.49-17.428 22.387-31.778 35.38-43.118 44.945-3.594 3.002-6.963 5.673-10.177 8.14-6.969 5.341-13.213 9.776-19.604 14.389-12.057 8.679-23.893 15.586-35.859 21.811-1.069 0.556-2.138 1.112-3.213 1.658-0.319 0.162-0.638 0.324-0.957 0.485-12.788 6.449-25.626 12.136-39.253 17.946-3.245 1.38-5.033 4.62-3.979 7.29 1.056 2.66 4.641 3.72 7.99 2.3 13.953-5.95 27.133-11.76 40.593-18.563h1e-3c1.111-0.563 2.226-1.128 3.337-1.703 12.283-6.369 24.671-13.584 37.297-22.657 6.343-4.571 12.4-8.859 19.443-14.228 3.353-2.56 6.91-5.358 10.813-8.608 11.854-9.969 26.809-23.477 44.909-46.694 9.649-12.483 19.404-25.999 29.288-42.257 2.265-3.733 4.533-7.611 6.793-11.656 12.042-21.644 24.21-48.051 33.3-82.312 2.28-8.661 4.35-15.969 6.27-23.363 0.11-0.415 0.22-0.83 0.32-1.245 1.79-6.96 3.44-14.108 4.64-22.3 0.15-1.094 0.35-2.492 0.58-4.175 2.3-18.694 10.41-76.973-11.07-152.64l-0.21-0.696c-14.95-50.279-30.005-75.961-38.157-96.903-2.126-5.221-4.292-9.97-6.443-14.319-4.627-9.336-9.008-16.586-13.094-22.885-1.139-1.753-2.227-3.402-3.279-4.962-4.541-6.722-8.297-11.942-11.671-17.459-10.257-16.621-16.874-29.383-24.199-46.354-6.278-14.434-17.638-29.338-28.448-41.797-0.016-0.019-0.032-0.038-0.048-0.056-1.283-1.484-2.557-2.936-3.807-4.352zm-656.28 446.49c1.209 3.567 4.463 5.718 7.201 4.82 2.741-0.903 3.957-4.438 2.782-7.906-2.809-8.261-5.372-16.691-7.64-25.115-0.957-3.549-3.956-5.931-6.777-5.31-2.82 0.625-4.374 4.107-3.392 7.762 2.322 8.635 4.949 17.282 7.826 25.749zm703.2-474.55c-2.941-3.27-7.486-4.663-10.054-3.148-2.565 1.518-2.201 5.326 0.678 8.496 1.528 1.684 4.001 4.497 7.25 8.343 16.635 19.511 53.112 66.545 81.963 128.15 11.98 25.225 22.85 52.683 31.85 81.011 2.6 8.156 4.7 15.635 6.51 22.694 7.17 30.523 7.46 56.079 11.13 114.26 8.91 154.53-68.66 314.41-207.68 394.02-80.204 47.37-177.78 66.22-270.24 51.6-72.105-11.15-141.27-37.47-201.59-77.8-52.712-30.63-128.52-113.81-140.49-137.66-2.24-3.461-6.025-5.132-8.504-3.676-2.475 1.455-2.664 5.555-0.369 9.103 12.138 24.188 89.278 109.08 142.96 140.38 61.538 41.27 132.11 68.26 205.75 79.77 94.84 15.13 195.43-2.2 279.82-49.42 145.53-78.549 233.09-244.45 223.53-407.41-3.93-60.985-16.75-83.914-23.9-114.77-1.84-7.239-3.98-14.917-6.64-23.353-9.3-29.432-20.58-57.918-32.99-83.982-28.657-61.018-64.457-107.73-81.32-127.72-3.404-4.069-6.024-7.075-7.667-8.901zm-183.39-95.205c-47.276-15.764-118.86-24.61-180.16-17.808-29.887 2.927-57.233 8.671-78.673 14.388-33.287 9.01-52.557 19.389-70.979 30.049-0.197 0.115-0.393 0.23-0.589 0.344-12.395 7.343-24.475 15.072-39.954 25.033-7.332 4.738-15.267 9.913-24.324 16.018-28.439 18.958-66.449 47.725-98.487 83.49-0.024 0.029-0.048 0.057-0.072 0.086-32.06 35.057-62.481 74.517-76.032 107.41-46.525 115.62-29.972 195.62-21.978 231.26 15.419 63.207 28.626 138.28 73.833 189.66 6.124 4.854 6.609-9.451-1.558-19.821-0.281-0.386-0.562-0.773-0.842-1.159-2.656-3.699-4.941-7.029-7.783-11.844-3.881-7.086-6.42-12.542-8.68-17.557-8.304-12.232-39.474-107.16-45.033-143.1-7.244-33.618-10.75-108.8 33.559-218.64 12.501-30.329 30.295-73.916 61.996-108.84 0.085-0.095 0.17-0.191 0.256-0.286 31.03-34.724 68.43-63.203 96.686-82.037 8.815-5.946 16.595-11.025 23.805-15.68 16.113-10.363 28.578-18.3 41.114-25.68l0.531-0.315c17.85-10.274 35.884-19.901 67.2-28.391 21.417-5.719 48.467-11.345 77.88-14.179 59.684-6.497 128.73 2.04 174.62 17.257 4.15 1.316 8.355 0.296 9.417-2.353 1.058-2.647-1.51-5.952-5.76-7.308zm17.525-61.802c-138.19-54.093-307.11-34.001-427.02 48.181-9.09 6.063-17.806 12.34-26.357 18.949-33.64 22.166-77.132 58.65-112.14 102.12-0.394 0.49-0.788 0.98-1.18 1.472-34.921 42.807-60.888 91.275-75.725 127.27-52.238 129.62-39.784 219.82-31.332 260.68 9.5669 38.83 12.615 49.081 16 64.935 0.102 0.429 0.206 0.858 0.309 1.287-1e-3 0.03-3e-3 0.06-5e-3 0.09-6e-3 0.569 0.025 1.04 0.047 1.281 0.045 0.491 0.112 0.885 0.137 1.032 0.058 0.341 0.123 0.623 0.145 0.723 0.09 0.412 0.204 0.88 0.282 1.18 0.72 2.82 3.204 11.455 5.562 18.236 2.403 6.95 4.468 11.787 6.713 16.827 0.229 0.511 0.459 1.021 0.689 1.531 2.051 4.536 4.326 9.478 7.559 16.543 1.969 4.291 5.644 6.525 8.132 5.033 2.486-1.497 2.892-6.069 0.979-10.271-3.328-7.321-5.677-12.465-7.684-16.943-0.223-0.496-0.446-0.993-0.667-1.49-2.09-4.728-3.859-8.964-5.943-14.997-2.765-8.807-4.403-15.436-5.836-21.552-3.457-16.094-6.868-27.733-16.541-67.679-7.5094-38.034-20.23-124.29 31.102-252.29 14.564-35.368 40.054-82.938 74.245-124.86 0.398-0.492 0.798-0.983 1.199-1.474 34.332-42.629 76.886-78.34 109.78-100.03 8.832-5.903 17.759-11.446 26.984-16.764 124.48-72.083 276.14-84.455 416.83-49.364 27.485 8.619 51.949 18.364 73.968 28.669 64.64 30.618 109.2 64.774 142.55 104.24 7.186 8.728 28.098 29.736 53.098 63.793 7.32 10.002 14.97 21.121 22.73 33.538 5.06 8.092 10.11 16.649 15.18 25.832 13.83 25.105 27.26 54.207 38.24 87.066 3.12 9.356 5.65 17.885 7.87 26.003 8.71 34.878 16.5 62.492 21.44 130.75 9.38 84.457-25.25 225.13-67.51 289.9-19.19 33.158-32.54 50.48-41.73 62.861-2.59 3.42-4.9 6.414-7.05 9.141-5.64 7.13-10.15 12.54-16.42 19.36-35.155 37.51-67.456 61.7-111.88 85.84-13.353 7.12-27.795 14.04-44.078 20.75-4.409 1.82-7.384 5.48-6.545 8.23 0.826 2.76 5.263 3.55 9.779 1.7 17.063-6.99 32.203-14.23 46.193-21.71 45.076-24.53 78.37-49.41 114.45-87.95 6.68-7.26 11.59-13.2 17.43-20.61 2.16-2.74 4.43-5.7 6.93-9.008 9.21-12.44 22.68-29.934 42.15-63.598 43.03-65.993 78.28-209.26 68.79-295.13-4.96-68.93-12.71-96.562-21.49-132.01-2.24-8.289-4.82-17.055-8-26.673-11.31-34.061-25.21-64.198-39.5-90.092-4.94-8.954-9.89-17.336-14.81-25.242-7.89-12.66-15.62-23.963-23.04-34.139-25.98-35.428-46.083-55.485-52.288-63.179-34.904-41.806-82.382-78.096-148.95-109.42-22.217-10.349-46.663-20.024-73.77-28.557zm-188.37 1041.6c4.811 0.69 9.199-1.1 9.781-3.91 0.58-2.8-2.775-5.54-7.476-6.2-24.869-3.56-42.422-7.71-56.033-11.2-25.138-6.67-36.967-10.82-54.797-16.63-45.965-15.27-87.952-36.61-122.99-59.69-58.517-38.36-97.191-80.82-116.66-103.42-3.084-3.576-7.314-5.028-9.558-3.243-2.232 1.791-1.58 6.205 1.57 9.86 19.713 22.885 58.834 65.875 118.23 104.94 35.75 23.62 78.677 45.54 125.86 61.25 17.64 5.75 29.027 9.76 54.077 16.5 13.862 3.6 31.948 7.97 57.994 11.74z" fill="url(#paint5_linear_4210_1950)"/>
   <path d="m450.55 881.37c12.487 8.486 26.998 21.095 41.474 26.041 0.201 0.069 0.402 0.138 0.603 0.207 5.856 2.005 12.043 3.594 19.498 5.184 0.952 0.203 1.93 0.402 2.926 0.605 8.855 1.779 19.708 3.716 34.356 5.528 48.817 5.983 86.231 8.806 98.51 9.791 24.135 1.626 50.34-1.976 83.564-13.527 3.032-1.07 6.134-2.235 9.273-3.46 2.555-0.996 3.673-4.216 2.511-7.149-1.165-2.934-4.076-4.5-6.518-3.545-2.954 1.155-5.874 2.24-8.722 3.249-0.013 5e-3 -0.026 9e-3 -0.039 0.014-32.132 11.195-56.804 14.534-79.478 13.005-12.091-0.982-48.899-3.773-97.052-9.561-14.256-1.731-24.831-3.608-33.427-5.316-0.941-0.189-1.861-0.375-2.753-0.563-0.021-3e-3 -0.042-7e-3 -0.064-0.011-7.227-1.524-12.963-2.987-18.357-4.82-0.114-0.042-0.227-0.084-0.341-0.125-14.114-4.787-27.672-16.946-39.335-24.851-2.244-1.502-5.574-0.706-7.454 1.829-1.877 2.532-1.514 5.901 0.825 7.475zm319.46-560.72c-13.245-10.66-34.55-17.98-53.83-21.017-19.454-3.212-37.378-2.466-45.707-1.409-8.17 1.012-16.969 0.812-27.472 0.73-2.407-0.017-4.901-0.027-7.481-6e-3 -8.516 0.071-18.003 0.472-28.286 1.996-37.706 5.801-61.164 12.662-78.025 17.404-3.461 1.01-6.67 1.978-9.658 2.924-5e-3 1e-3 -0.01 3e-3 -0.015 5e-3 -11.288 3.592-19.569 6.798-26.453 11.278-12.166 8.002-21.635 15.301-31.412 25.853-13.56 14.415-34.868 29.792-50.396 39.16-0.857 0.504-1.739 1.019-2.625 1.55-1.338 0.804-2.712 1.642-4.124 2.525-10.464 6.596-23.061 15.265-37.978 30.873-14.003 14.744-23.263 30.067-30.094 44.075-1.965 4.032-3.707 7.93-5.316 11.687-4.075 9.525-7.258 18.168-10.608 26.193-20.339 50.227-19.526 82.973-17.692 102.17 1.745 14.998 5.199 23.123 7.636 28.883 0.748 1.742 1.431 3.268 1.987 4.703 4.989 12.776 8.209 24.229 12.968 37.666 1.061 2.972 2.21 6.042 3.485 9.217 4.269 10.589 6.238 18.632 7.388 25.153 0.507 2.847 0.875 5.396 1.237 7.795 5e-3 0.045 0.01 0.09 0.016 0.134 0.05 0.335 0.106 0.665 0.157 0.994 0.039 0.248 0.067 0.5 0.107 0.748-0.023 0.111-0.029 0.205-0.039 0.278-8e-3 0.057-0.012 0.101-0.015 0.129-3e-3 6e-3 -6e-3 0.012-9e-3 0.019-0.054 0.515-3e-3 0.926 7e-3 1.01 0.017 0.147 0.046 0.273 0.058 0.338 0.065 0.345 0.184 0.777 0.269 1.063 0.216 0.733 0.613 2.002 1.275 3.949 0.464 1.736 0.808 3.445 1.257 5.583 0.027 0.135 0.054 0.27 0.081 0.404 0.439 2.08 0.98 4.512 1.817 7.52 0.763 2.744 3.881 4.224 6.903 3.293 3.023-0.933 4.83-3.831 4.1-6.462-0.759-2.733-1.243-4.933-1.665-6.941-0.026-0.128-0.051-0.256-0.076-0.383-0.436-2.09-0.837-4.083-1.4-6.166-0.189-0.698-0.396-1.412-0.598-2.076-0.292-1.219-0.541-2.636-0.806-4.334-0.053-0.341-0.114-0.69-0.168-1.05-0.345-2.305-0.723-5.003-1.253-7.989-1.232-7.001-3.348-15.546-7.852-26.653-1.178-2.919-2.255-5.778-3.266-8.59-4.644-12.998-8.017-24.848-13.161-37.985-0.703-1.805-1.475-3.542-2.278-5.415-2.342-5.556-5.21-12.294-6.79-25.687-1.685-17.66-2.647-48.557 16.831-96.776 3.384-8.13 6.658-17.032 10.664-26.375 1.523-3.553 3.165-7.172 4.943-10.827 6.479-13.313 15.133-27.631 28.185-41.383 14.975-15.657 27.418-23.937 37.841-30.38 0.692-0.424 1.375-0.838 2.051-1.243 0.379-0.224 0.758-0.447 1.137-0.669 0.468-0.278 0.934-0.552 1.394-0.824 16.019-9.661 37.831-25.339 52.293-40.772 9.044-9.779 17.768-16.553 29.441-24.255 5.797-3.772 12.61-6.436 23.279-9.875 2.993-0.958 6.29-1.976 9.976-3.053 16.563-4.669 39.54-11.39 76.375-17.093 9.621-1.432 18.387-1.815 26.568-1.896 2.543-0.024 5.038-0.023 7.485-7e-3 10.199 0.068 19.676 0.313 28.825-0.823 7.501-0.955 24.291-1.703 42.604 1.305 18.413 2.908 37.362 9.639 48.659 18.704 1.175 0.935 2.356 1.879 3.526 2.831 10.091 8.19 19.699 17.148 25.391 27.017 10.193 26.191 29.558 47.103 49.908 69.39 20.594 22.251 41.552 45.872 54.05 67.816 0.327 0.567 0.653 1.136 0.976 1.705 28.572 50.618 32.256 94.506 33.63 108.47 0.058 0.669 0.107 1.277 0.152 1.824 0.039 0.489 0.068 0.931 0.098 1.321 0.454 5.849 0.327 11.056 0.061 16.485-0.016 0.297-0.031 0.593-0.047 0.89-0.303 5.739-0.731 11.727-0.948 18.805-0.864 26.353-5.388 47.532-10.592 65.241-0.97 3.279-1.964 6.452-2.992 9.527-2e-3 9e-3 -5e-3 0.018-8e-3 0.027-4.518 13.481-9.429 25.078-14.307 35.932-8.988 19.788-17.473 31.933-24.337 40.962-2.182 2.843-4.248 5.387-6.237 7.761-4.312 5.142-8.218 9.477-12.132 14.038-7.381 8.581-15.013 15.715-22.83 22.367-0.699 0.594-1.396 1.189-2.1 1.778l-0.627 0.522c-8.384 6.962-16.884 13.365-25.772 20.184-2.115 1.623-2.355 4.992-0.519 7.562 1.837 2.564 5.138 3.31 7.351 1.616 9.202-7.053 18.019-13.69 26.924-21.12 1e-3 0 1e-3 0 1e-3 -1e-3 0.735-0.614 1.474-1.229 2.207-1.852 8.104-6.895 16.162-14.447 23.974-23.523 3.925-4.572 7.75-8.817 12.152-14.054 2.095-2.497 4.3-5.197 6.692-8.314 7.245-9.528 16.178-22.304 25.621-43.057 5.013-11.136 10.051-23.03 14.749-37.016 1.076-3.212 2.131-6.534 3.152-9.98 5.425-18.431 10.155-40.526 11.075-68.025 0.217-6.941 0.637-12.831 0.952-18.759 0.016-0.332 0.031-0.665 0.046-0.997 0.274-5.583 0.426-11.285-0.069-17.697-0.067-0.856-0.16-1.948-0.272-3.262-1.423-14.511-5.218-60.23-34.936-113-0.094-0.161-0.187-0.322-0.28-0.483-20.255-34.893-36.11-51.133-45.251-65.94-2.35-3.675-4.691-6.96-6.98-9.922-4.923-6.36-9.421-11.077-13.561-15.1-1.152-1.119-2.249-2.168-3.305-3.154-4.556-4.251-8.27-7.508-11.634-11.212-10.219-11.153-16.798-20.466-24.372-33.791-6.496-11.328-17.452-21.488-27.686-29.781-0.016-0.012-0.031-0.025-0.047-0.037-1.214-0.988-2.418-1.951-3.598-2.892zm-415.82 471.88c1.554 2.468 5.024 3.101 7.706 1.44 2.684-1.667 3.615-4.919 2.123-7.285-3.569-5.652-6.97-11.453-10.165-17.339-1.342-2.47-4.688-3.379-7.53-2.003-2.841 1.379-4.059 4.612-2.663 7.193 3.309 6.107 6.832 12.129 10.529 17.994zm453.16-517.07c-2.92-2.172-7.036-1.917-9.087 0.532-2.05 2.45-1.331 6.113 1.508 8.211 1.502 1.112 3.943 2.996 7.167 5.594 16.521 13.158 53.078 45.468 85.715 89.769 13.516 18.115 26.524 38.04 38.361 58.802 3.415 5.988 6.306 11.512 8.903 16.768 10.725 22.885 13.516 43.714 26.693 88.339 34.332 118.85 4.107 258.07-87.714 347.74-52.742 52.806-124.27 87.094-198.25 93.519-57.592 5.189-115.6-1.271-169.67-20.457-46.285-13.055-121.38-61.797-135.27-78.198-2.396-2.261-6.144-2.346-8.399-0.135-2.252 2.209-2.091 5.943 0.387 8.285 14.193 16.784 91.328 67.114 138.92 80.628 55.697 19.857 115.44 26.601 174.77 21.3 76.51-6.598 151.41-40.057 208.46-93.645 98.773-90.094 138.2-237.93 101.14-365.91-14.192-47.824-29.794-62.929-40.63-86.208-2.681-5.437-5.66-11.163-9.218-17.412-12.382-21.765-26.02-42.602-40.151-61.455-32.731-44.189-69.056-76.504-85.98-90.069-3.414-2.764-6.026-4.79-7.658-6.003zm-164.71-37.164c-40.53-2.946-98.759 5.396-145.52 23.818-22.89 8.675-43.194 19.008-58.91 28.001-24.376 14.067-37.121 26.813-49.08 39.534-0.128 0.136-0.255 0.272-0.382 0.409-8.016 8.698-15.682 17.599-25.705 28.771-4.745 5.306-9.908 11.044-15.819 17.684-18.598 20.698-43.386 50.563-62.472 84.992-0.014 0.027-0.027 0.055-0.041 0.082-19.19 33.791-37.995 70.604-42.682 99.696-15.606 101.94 13.993 162.87 28.249 189.2 26.072 46.338 47.704 105.15 95.348 134.65 6.235 2.066 5.613-10.87-3.096-16.944-0.303-0.235-0.605-0.471-0.907-0.707-2.873-2.272-5.362-4.347-8.541-7.503-4.384-4.75-7.364-8.546-10.039-12.044-8.725-7.978-50.578-76.259-62.884-103.24-13.218-24.838-27.79-84.166-13.161-179.16 4.214-26.273 8.746-64.674 27.605-98.159 0.05-0.091 0.1-0.182 0.151-0.273 18.359-33.154 42.561-62.444 60.902-82.86 5.709-6.422 10.732-12.012 15.363-17.192 10.355-11.546 18.205-20.66 26.244-29.376 0.113-0.124 0.227-0.248 0.34-0.372 11.504-12.231 23.345-24.034 46.112-37.191 15.583-8.927 35.538-19.038 57.911-27.487 45.226-17.727 100.99-25.735 140.02-22.954 3.514 0.203 6.628-2.126 6.963-5.266 0.332-3.136-2.336-5.904-5.968-6.119zm1.713-71.132c-124.96-17.611-259.95 36.782-339.72 131.39-6.092 7.033-11.831 14.168-17.355 21.535-23.045 25.317-51.35 64.472-71.563 107.66-0.227 0.487-0.452 0.975-0.677 1.463-20.255 42.612-32.258 88.104-37.596 121.03-18.324 118.32 9.342 191.45 25.397 223.41 16.455 30.067 20.903 37.917 26.715 50.436 0.167 0.336 0.335 0.671 0.503 1.007 2e-3 0.026 4e-3 0.052 7e-3 0.079 0.073 0.488 0.172 0.882 0.228 1.081 0.116 0.407 0.241 0.723 0.287 0.842 0.107 0.274 0.215 0.496 0.252 0.575 0.151 0.325 0.334 0.692 0.457 0.925 1.139 2.193 4.908 8.861 8.234 13.972 3.398 5.242 6.15 8.793 9.091 12.449 0.3 0.37 0.6 0.739 0.901 1.108 2.674 3.287 5.614 6.846 9.768 11.978 2.526 3.111 6.511 3.862 8.852 1.735 2.338-2.131 2.218-6.244-0.235-9.28-4.256-5.271-7.293-8.96-9.907-12.183-0.291-0.357-0.581-0.715-0.87-1.073-2.734-3.407-5.097-6.504-8.031-11.023-4-6.683-6.609-11.849-8.938-16.611-5.881-12.62-10.861-21.486-27.603-52.249-14.611-29.61-41.623-98.95-23.853-215.1 5.199-32.173 16.909-76.582 36.625-118.1 0.229-0.487 0.46-0.973 0.691-1.459 19.706-42.132 47.244-80.266 69.659-104.91 6.001-6.677 12.154-13.081 18.589-19.357 86.95-84.929 206.91-126.68 329-129.94 24.242 1.286 46.261 4.104 66.421 7.929 59.224 11.518 102.99 30.526 137.63 57.632 7.49 6.023 28.764 19.298 55.818 42.637 7.924 6.855 16.33 14.586 25.058 23.368 5.69 5.729 11.456 11.841 17.34 18.476 16.079 18.139 32.539 39.723 47.571 64.927 4.274 7.172 7.913 13.787 11.193 20.108 13.46 27.33 24.81 48.765 41.7 104.16 23.56 67.953 21.94 190.62 0.26 252.36-9.13 31.131-16.48 48.125-21.42 60.214-1.4 3.352-2.66 6.298-3.85 8.993-3.12 7.05-5.66 12.434-9.4 19.328-21.072 38.047-42.699 64.397-74.148 92.963-9.478 8.483-19.876 17.001-31.799 25.729-3.228 2.364-4.543 6.428-2.861 9.111 1.675 2.686 5.82 2.916 9.146 0.493 12.564-9.17 23.52-18.146 33.495-27.096 32.059-29.182 54.471-56.448 76.217-95.729 4.01-7.381 6.79-13.312 10.04-20.672 1.19-2.725 2.44-5.643 3.81-8.905 4.97-12.205 12.44-29.455 21.77-61.234 22.21-63.247 23.89-188.92-0.18-258.47-17.14-56.314-28.54-77.907-42.26-105.87-3.36-6.498-7.1-13.344-11.51-20.768-15.636-26.301-32.797-48.79-49.513-67.606-5.782-6.507-11.461-12.53-17.044-18.165-8.935-9.013-17.51-16.924-25.603-23.945-28.306-24.427-48.863-37.15-55.401-42.505-36.594-28.91-83.486-49.19-144.78-60.933-20.447-3.84-42.562-6.615-66.611-7.915zm51.298 904.14c4.045-0.43 7.129-3.41 6.886-6.56-0.244-3.15-3.624-5.3-7.549-4.88-20.779 2.2-35.779 2.39-47.455 2.32-21.621-0.33-31.982-1.31-47.534-2.22-40.151-2.61-78.433-11.09-111.47-22.56-55.151-19-95.083-45.855-115.46-60.317-3.223-2.283-7.325-2.125-9.234 0.39-1.901 2.513-0.813 6.489 2.504 8.843 20.769 14.744 61.446 42.124 117.82 61.644 33.941 11.85 73.353 20.67 114.83 23.38 15.485 0.92 25.523 1.88 47.219 2.26 11.971 0.11 27.539-0.01 49.441-2.3z" fill="url(#paint6_linear_4210_1950)"/>
   <path d="m489.64 606.04c-0.296 6.677-6.648 14.69-3.197 21.765 0.048 0.096 0.096 0.193 0.145 0.289 1.406 2.815 3.514 5.621 6.183 8.802 0.34 0.406 0.697 0.818 1.056 1.235 3.194 3.704 7.15 8.04 12.087 13.336 16.398 16.875 15.599 32.309 15.977 38.714 0.426 11.631 7.047 21.705 17.961 32.876 1.007 1.024 2.071 2.041 3.157 3.083 0.891 0.854 4.523-1.777 8.102-5.875 3.581-4.1 5.87-7.995 5.13-8.707-0.906-0.872-1.778-1.736-2.616-2.589-4e-3 -4e-3 -8e-3 -8e-3 -0.012-0.011-9.344-9.584-14.851-18.043-14.541-28.042-0.024-5.857 2.049-19.274-14.058-33.217-4.788-4.38-8.671-8.041-11.825-11.183-0.345-0.345-0.687-0.684-1.012-1.016-8e-3 -8e-3 -0.017-0.016-0.025-0.024-2.641-2.704-4.647-5.008-5.988-7.305-0.024-0.049-0.047-0.098-0.071-0.147-3.474-6.132 2.846-12.713 2.959-18.201 0.015-1.066-4.289-2.874-9.631-4.026-5.338-1.152-9.723-1.037-9.781 0.243zm348.05 31.1c6.907-10.022 4.556-24.099-1.061-35.04-5.593-11.155-14.407-19.497-19.344-22.824-4.833-3.299-7.682-7.624-10.755-12.917-0.705-1.212-1.422-2.474-2.179-3.767-2.495-4.265-5.446-8.942-9.733-13.35-15.778-15.998-24.908-25.784-31.232-33.524-1.311-1.57-2.512-3.034-3.663-4.397-2e-3 -2e-3 -4e-3 -4e-3 -7e-3 -6e-3 -4.348-5.135-7.874-8.821-12.764-10.073-8.678-2.164-16.007-3.246-25.882-1.548-13.528 2.33-24.372-4.745-30.772-14.565-0.344-0.541-0.695-1.106-1.06-1.666-0.55-0.847-1.127-1.715-1.737-2.602-4.541-6.573-10.709-14.276-21.569-20.965-10.255-6.273-20.45-7.399-29.178-7.031-2.522 0.103-4.915 0.34-7.195 0.592-5.78 0.638-10.827 1.471-15.661 1.239-30.255-1.116-46.354 9.044-53.892 17.597-5.917 6.814-7.393 13.614-8.329 18.419-0.281 1.458-0.501 2.759-0.772 3.833-2.373 9.568-5.426 15.258-8.556 22.252-0.684 1.549-1.358 3.167-1.995 4.888-2.104 5.744-5.168 7.589-8.305 8.455-1.364 0.374-2.708 0.562-3.992 0.748-0.025 1e-3 -0.051 2e-3 -0.076 4e-3 -0.179 0.026-0.351 0.059-0.527 0.086-0.132 0.02-0.278 0.024-0.41 0.046-0.1-0.044-0.172-0.065-0.232-0.087-0.048-0.017-0.083-0.029-0.106-0.036-7e-3 -5e-3 -0.014-9e-3 -0.022-0.014-0.414-0.138-0.65-0.123-0.699-0.121-0.086 4e-3 -0.145 0.026-0.178 0.034-0.177 0.04-0.359 0.142-0.475 0.215-0.298 0.188-0.79 0.545-1.516 1.135-0.777 0.362-1.671 0.562-2.799 0.823-0.073 0.015-0.145 0.03-0.217 0.046-1.102 0.256-2.379 0.578-3.844 1.154-1.342 0.534 0.757 4.12 4.711 7.956 3.953 3.837 8.143 6.591 9.341 6.209 1.249-0.408 2.348-0.602 3.352-0.764 0.065-9e-3 0.131-0.017 0.196-0.026 1.047-0.168 2.031-0.318 2.885-0.678 0.286-0.121 0.56-0.266 0.804-0.413 0.529-0.171 1.23-0.258 2.085-0.328 0.171-0.014 0.339-0.037 0.521-0.05 1.166-0.085 2.52-0.163 3.847-0.44 3.133-0.661 6.011-2.34 7.692-8.117 0.449-1.518 0.944-2.96 1.461-4.368 2.424-6.5 5.026-12.186 6.907-21.949 0.265-1.342 0.451-2.808 0.68-4.368 0.695-4.61 1.655-10.233 6.388-16.217 6.198-7.737 20.15-17.116 47.093-15.883 4.538 0.258 9.35-0.622 14.616-1.282 2.002-0.252 4.07-0.453 6.193-0.568 7.702-0.427 16.574 0.53 25.399 6.288 10.055 6.616 15.386 14.288 19.343 20.793 0.262 0.432 0.517 0.859 0.765 1.281 0.137 0.241 0.273 0.481 0.407 0.722 0.17 0.293 0.338 0.584 0.503 0.871 5.91 10.032 15.748 16.812 29.687 13.633 8.817-1.983 15.306-1.343 23.286 0.292 3.94 0.842 6.623 3.675 10.428 8.197 1.066 1.272 2.222 2.661 3.51 4.219 5.732 7.089 13.997 15.906 28.784 30.133 3.848 3.76 6.429 7.751 8.7 11.533 0.706 1.177 1.393 2.34 2.073 3.477 2.837 4.748 5.697 9.047 11.081 12.394 4.419 2.709 12.649 9.857 17.838 19.621 5.274 9.727 7.01 21.5 0.991 29.507-0.622 0.831-1.241 1.659-1.871 2.478-5.414 7.05-11.429 13.616-21.388 17.651-30.761 8.169-41.89 15.769-47.414 26.736-5.451 10.783-5.743 24.813-10.798 34.383-0.127 0.245-0.254 0.489-0.382 0.734-11.58 21.733-29.063 31.133-34.368 33.913-0.26 0.135-0.497 0.256-0.71 0.366-0.19 0.098-0.367 0.177-0.518 0.256-2.273 1.179-4.627 1.571-7.072 1.906-0.134 0.018-0.268 0.036-0.402 0.053-2.589 0.348-5.258 0.685-8.082 1.877-10.554 4.425-20.068 5.659-28.147 5.937-1.499 0.05-2.956 0.084-4.38 0.076-4e-3 1e-3 -8e-3 1e-3 -0.012 2e-3 -6.236-0.041-11.714-0.51-16.87-0.566-9.444-0.138-15.731-2.338-20.355-4.489-1.465-0.685-2.773-1.379-4.004-2.057-2.666-1.472-4.915-2.828-7.342-3.767-4.57-1.773-8.442-4.506-12.095-7.335-0.327-0.252-0.656-0.496-0.981-0.751-0.097-0.075-0.193-0.151-0.289-0.227-3.858-3.036-7.388-6.048-11.494-8.249-0.971-0.52-3.811 2.994-6.353 7.842-2.538 4.843-3.679 9.282-2.53 9.898 4.737 2.536 8.875 5.853 13.487 9.235 0.381 0.279 0.76 0.568 1.145 0.845 4.25 3.069 8.84 6.052 14.212 8.06 2.704 1.007 5.165 2.374 8.194 3.916 1.444 0.733 2.992 1.501 4.777 2.269 5.43 2.321 12.752 4.715 23.716 4.882 5.856 0.065 12.072 0.491 19.215 0.435 1.642-0.014 3.331-0.055 5.07-0.137 9.283-0.45 20.21-1.989 32.423-7.062 3.073-1.285 5.939-1.752 8.853-2.248 0.162-0.03 0.325-0.06 0.487-0.091 2.739-0.473 5.55-1.026 8.306-2.463 0.368-0.192 0.833-0.446 1.397-0.742 6.107-3.243 26.199-14.017 40.277-38.976 0.041-0.078 0.081-0.157 0.121-0.235 9.083-16.678 11.369-26.589 19.082-31.998 1.902-1.374 3.462-2.794 4.753-4.205 2.772-3.037 4.268-5.868 5.366-8.447 0.306-0.718 0.59-1.398 0.844-2.052 1.092-2.821 1.885-5.076 3.744-7.093 5.596-6.154 13.079-10.081 26.367-15.852 11.264-4.966 17.96-13.052 23.303-20.686 8e-3 -0.011 0.016-0.022 0.024-0.034 0.636-0.906 1.252-1.808 1.861-2.696zm-343.2-96.106c-0.687 1.285 2.447 4.878 6.981 8.02 4.539 3.143 8.666 4.792 9.233 3.687 1.367-2.672 2.831-5.304 4.396-7.897 0.648-1.078-2.192-4.866-6.377-8.481-4.188-3.616-8.25-5.554-9.036-4.309-1.843 2.944-3.575 5.938-5.197 8.98zm441.39 106.18c1.111-2.749-2.381-5.567-7.723-6.171-5.338-0.604-10.501 1.055-11.588 3.614-0.576 1.36-1.626 3.579-3.102 6.513-7.391 15.165-26.739 47.802-51.036 77.183-9.889 12.24-20.371 24.19-30.557 35.893-2.945 3.385-5.738 6.295-8.436 8.961-11.988 11.427-29.765 12.112-50.752 30.672-56.169 49.27-141.86 74.206-220.89 45.84-45.802-15.88-86.498-49.613-107.94-93.11-16.714-33.675-28.724-68.175-33.321-104.06-5.87-29.269-5.507-86.908-0.312-100.23 0.542-2.055-3.123-5.366-8.226-7.39-5.1-2.022-9.763-1.827-10.377 0.429-5.674 14.275-7.02 76.901-0.705 108.85 4.925 39.161 18.046 76.721 36.441 113.04 23.662 46.988 65.34 86.198 115 108.15 84.303 38.806 189.25 23.196 258.29-36.904 25.835-22.821 25.943-40.839 38.47-52.881 2.905-2.94 5.926-6.138 9.123-9.892 11.111-13.031 22.395-26.362 32.897-39.91 24.731-31.241 43.921-65.206 51.462-81.349 1.553-3.234 2.667-5.708 3.287-7.239zm-34.977-124.82c-10.895-28.972-37.378-65.17-65.819-89.859-13.72-12.231-27.505-22.138-38.665-29.685-17.4-11.678-31.22-13.912-44.376-15.469-0.141-0.017-0.281-0.034-0.421-0.051-8.947-0.978-17.745-1.609-28.319-3.759-5.017-1.014-10.354-2.322-16.402-4.081-18.898-5.58-44.821-14.935-72.805-19.515-0.022-1e-3 -0.043-2e-3 -0.065-3e-3 -27.287-4.82-58.505-14.581-79.559-8.711-73.136 21.09-100.07 65.912-108.09 87.161-13.422 37.316-53.96 60.88-45.036 104.99 3.579 5.519 19.706 5.198 18.238-2.498-0.019-0.271-0.037-0.543-0.055-0.814-0.14-2.584-0.158-4.847 0.366-7.771 1.189-4.018 2.55-6.81 3.821-9.324 2.163-7.299 28.185-51.087 36.928-71.016 7.432-19.834 43.545-39.808 104.59-57.518 16.856-4.86 41.287-19.12 67.681-14.499 0.071 0.012 0.141 0.023 0.212 0.035 25.825 4.408 50.1 13.323 67.976 18.552 5.609 1.614 10.602 2.804 15.313 3.718 10.509 2.049 19.244 2.495 27.944 3.277 0.124 9e-3 0.248 0.018 0.372 0.028 12.292 1.216 24.746 3.026 40.408 13.478 10.663 7.173 23.688 16.516 36.61 27.977 26.488 22.896 51.039 56.165 61.086 82.999 0.931 2.388 5.728 2.697 10.758 0.684 5.025-2.013 8.314-5.741 7.304-8.325zm111.16-50.782c-27.265-113.6-130.32-204.83-238.37-225-8.094-1.661-16.125-2.959-24.224-3.956-28.678-8.987-70.271-16.974-111.95-17.219-0.47 1e-3 -0.94 4e-3 -1.409 8e-3 -41.222-0.483-81.576 6.51-109.62 14.085-100.45 27.771-148.36 77.914-164.13 106.13-14.354 27.525-18.633 33.633-26.318 42.719-0.198 0.254-0.396 0.508-0.594 0.762-0.026 6e-3 -0.052 0.012-0.078 0.018-0.452 0.145-0.78 0.314-0.94 0.408-0.325 0.193-0.545 0.388-0.628 0.46-0.192 0.169-0.327 0.331-0.377 0.387-0.205 0.23-0.423 0.507-0.557 0.69-1.257 1.707-4.876 7.272-7.322 11.971-2.515 4.809-3.849 8.588-5.128 12.558-0.128 0.404-0.256 0.808-0.383 1.213-1.135 3.596-2.333 7.509-4.252 12.95-1.165 3.317 1.862 8.094 6.671 10.693 4.813 2.589 9.494 2.187 10.573-0.956 1.868-5.441 3.041-9.41 4.09-12.854 0.116-0.384 0.231-0.767 0.348-1.15 1.136-3.635 2.251-6.798 4.331-10.855 3.395-5.574 6.389-9.387 9.162-12.818 7.519-8.925 12.203-15.589 26.279-43.234 14.074-25.54 57.889-72.669 154.03-99.554 26.726-7.26 65.169-13.986 104.39-13.597 0.459 4e-3 0.919 0.01 1.378 0.015 39.703 0.167 79.291 7.677 106.58 16.19 7.36 2.25 14.567 4.742 21.765 7.512 97.832 37.961 172.2 117.19 228.56 209.93 8.181 19.995 14.521 38.723 19.341 56.38 13.94 51.868 15.89 95.143 2.13 132.61-3.12 8.122-6.4 29.938-15.65 59.585-2.723 8.681-5.972 18.039-9.95 27.949-2.6 6.471-5.48 13.1-8.736 19.977-8.903 18.788-20.492 38.943-35.502 58.844-4.271 5.655-8.344 10.605-12.288 15.157-17.325 19.113-30.5 34.434-66.441 66.394-43.093 41.371-135.22 83.038-189.38 89.094-26.644 4.38-42.134 5.39-53.064 6.44-3.048 0.26-5.742 0.49-8.221 0.67-6.499 0.46-11.501 0.7-18.109 0.4-36.573-1.96-64.482-10.06-96.801-25.602-9.65-4.719-19.611-10.191-30.238-16.789-2.872-1.784-7.344 0.6-10.007 5.373s-2.358 10.237 0.683 12.122c11.472 7.092 22.242 12.966 32.676 18.006 33.836 16.11 63.421 24.67 102.1 26.84 7.249 0.35 12.892 0.09 19.837-0.37 2.568-0.17 5.302-0.39 8.341-0.64 11.308-1.03 27.429-2.01 55.346-6.52 56.917-6.2 154-49.817 199.44-93.337 37.625-33.387 51.222-49.335 69.374-69.48 4.154-4.82 8.474-10.079 13.003-16.108 16.041-21.376 28.374-43.02 37.782-63.109 3.25-6.952 6.15-13.672 8.76-20.207 4.16-10.444 7.56-20.271 10.4-29.394 9.85-31.899 12.96-53.531 15.75-60.835 14.69-40.708 12.46-88.174-2.51-143.09-5.05-18.324-11.63-37.563-19.95-57.869zm-691.29 372.49c1.749 3.055 6.897 3.089 11.416 0.099 4.52-2.991 6.804-7.738 5.166-10.618-8.667-15.276-13.805-26.784-17.626-35.806-6.936-16.761-9.616-25.019-14.757-36.958-13.101-30.918-21.16-62.766-24.965-91.864-6.492-48.535-1.215-88.623 1.658-109.43 0.446-3.278-3.466-6.909-8.798-8.12-5.325-1.213-10.087 0.625-10.576 4.116-3.063 21.836-8.629 63.933-1.885 115.07 3.974 30.808 12.429 64.599 26.32 97.477 5.254 12.235 7.961 20.452 15.133 37.732 4.038 9.499 9.5 21.782 18.914 38.302z" fill="url(#paint7_linear_4210_1950)"/>
   <path d="m642.24 630.34c-0.068-1.783-5.98 1.303-3.944-2.275 0.027-0.051 0.054-0.104 0.081-0.156 0.78-1.516 1.991-3.609 3.258-6.272 0.16-0.34 0.327-0.696 0.488-1.054 1.423-3.187 2.905-7.187 3.536-12.157 0.991-8.405-2.72-11.723-6.101-11.998-3.484-0.34-6.734 2.129-8.143 3.34-5.693 4.903-9.324 4.325-15.46 4.507-0.552 0.022-1.123 0.029-1.707 0.076-0.457 0.038-1.248-4.969-1.774-11.21-0.525-6.243-0.38-11.357 0.329-11.407 0.836-0.06 1.653-0.102 2.444-0.128h0.01c9.001-0.213 14.523 0.751 21.823-3.594 3.031-2.596 19.739-7.796 21.596 12.139 0.258 5.647-0.614 10.174-1.563 13.798-0.105 0.397-0.216 0.789-0.323 1.162-4e-3 0.01-7e-3 0.019-0.01 0.029-0.874 3.036-1.739 5.34-2.186 7.089-6e-3 0.034-0.012 0.067-0.018 0.101-1.277 4.39 5.548 2.263 6.245 4.85 0.121 0.482-4.012 3.741-9.212 7.281-5.198 3.537-9.381 6.168-9.369 5.879zm-0.478-13.822c4.086-7.545 0.362-9.327-3.957-7.702-4.449 1.539-9.495 6.494-11.986 9.842-2.48 3.253-3.643 4.155-4.741 4.581-0.25 0.098-0.493 0.173-0.742 0.255-0.816 0.272-1.731 0.609-2.897 2.139-4.097 5.71-4.427 6.12-5.281 5.456-0.15-0.127-0.291-0.297-0.426-0.453h-1e-3c-0.498-0.586-0.996-0.985-1.013 1.611 0.042 4.61 0.465 8.711 2.568 16.422 3.025 10.65 5.14 8.573 2.04 1.571-0.162-0.385-0.338-0.792-0.515-1.189-0.267-0.601-0.551-1.213-0.851-1.832-2.223-4.61-5.294-9.648-8.529-12.901-3.079-3.043-3.715-2.082-3.29-0.809 0.11 0.373 0.3 0.79 0.48 1.17 0.451 0.966 0.954 1.754 0.345 1.686-3.985-0.149-1.133 3.92 4.725 6.304 4.436 1.988 10.464 3.631 14.844 4.648 1.325 0.307 2.518 0.563 3.457 0.747 8.381 1.592 12.328 1.453 17.014 0.928 1.041-0.127 2.128-0.287 3.304-0.489 3.937-0.705 3.283-1.734 1.641-2.331-0.717-0.273-1.604-0.494-2.461-0.68-0.019-4e-3 -0.038-7e-3 -0.057-0.011-0.12-0.026-0.228-0.051-0.345-0.076-0.088-0.019-0.2-0.037-0.286-0.055-0.116-5e-3 -0.191-0.011-0.257-0.014-0.052-3e-3 -0.09-5e-3 -0.114-7e-3h-0.029c-0.444-0.027-0.62-0.054-0.657-0.059-0.065-0.01-0.094-0.019-0.115-0.024-0.107-0.024-0.17-0.057-0.203-0.079-0.085-0.058-0.187-0.158-0.302-0.313-0.341-0.123-0.917-0.225-1.649-0.333-0.048-7e-3 -0.096-0.013-0.144-0.02-0.715-0.104-1.535-0.212-2.343-0.339-0.735-0.101 3.756-0.728 10.034-1.462 6.278-0.732 11.982-1.108 12.745-0.781 0.786 0.322 1.581 0.58 2.31 0.829 0.049 0.015 0.098 0.031 0.147 0.046 0.759 0.261 1.468 0.525 1.889 0.839 0.14 0.105 0.251 0.216 0.333 0.321 0.296 0.182 0.798 0.386 1.428 0.641 0.127 0.051 0.242 0.105 0.377 0.16 0.864 0.351 1.868 0.783 2.653 1.303 1.838 1.183 2.499 3.009-1.859 4.635-1.142 0.417-2.209 0.793-3.255 1.132-4.808 1.516-9.195 2.561-18.301 1.706-1.248-0.124-2.663-0.319-4.156-0.552-4.424-0.694-9.68-1.708-14.09-2.666-6.024-1.116-9.591-3.101-7.946 0.056 0.24 0.579-0.756 0.269-1.73-0.17-0.374-0.166-0.732-0.331-1.052-0.47-1.207-0.487-1.538-0.603 0.291 3.122 2.054 4.28 4.286 10.075 5.761 15.245 0.098 0.342 0.192 0.68 0.282 1.016 0.053 0.193 0.106 0.386 0.157 0.579 0.061 0.233 0.12 0.465 0.176 0.695 2.179 8.01-2.21 11.169-6.974-0.328-2.882-7.193-4.091-11.012-5.136-15.507-0.481-2.217-0.609-1.836-0.953-1.27-0.093 0.158-0.2 0.31-0.321 0.442-0.405 0.63-1.877 0.117-0.285-6.348 0.466-1.665 0.749-2.184 1.017-2.654 0.085-0.146 0.175-0.294 0.277-0.461 0.439-0.688 1.054-1.852 3.408-5.858 1.892-3.31 5.828-8.64 9.122-10.809 3.236-2.254 5.4-1.234 1.174 4.799-0.439 0.625-0.879 1.239-1.331 1.85-3.898 5.255-8.377 10.225-16.848 17.349-26.473 22.357-39.463 23.449-42.776 20.349-3.623-3.4 2.302-10.614 3.881-13.995l0.12-0.285c3.511-8.145 4.008-12.555 4.105-14.528 7e-3 -0.084 0.011-0.161 0.018-0.23 5e-3 -0.061-1e-3 -0.119 5e-3 -0.168 0.093-0.727-0.554-1.553-1.196-2.474-0.036-0.051-0.071-0.101-0.107-0.152-0.673-0.974-1.276-2.046-0.878-2.976 1.476-3.421 1.968-6.687 2.595-9.824 0.116-0.577 0.253-1.135 0.383-1.694 0-1e-3 1e-3 -3e-3 2e-3 -4e-3 0.565-2.449 1.325-4.715 2.755-6.332 2.603-2.922 3.698-5.758 4.445-8.37 0.236-0.816 0.444-1.607 0.652-2.358 0.452-1.625 0.933-3.057 1.812-4 1.65-1.768 2.732-4.175 3.983-6.499 0.112-0.207 0.23-0.402 0.344-0.607 0.034-0.061 0.068-0.122 0.102-0.182 1.357-2.423 3.093-4.721 5.614-5.63 0.615-0.222 2.812 4.447 4.886 10.393 2.072 5.941 3.439 10.864 3.064 11.003-1.645 0.607-2.58 2.588-3.168 4.695-0.049 0.174-0.092 0.36-0.139 0.536-0.523 1.956-0.906 3.96-1.805 5.256-0.456 0.656-0.548 1.753-0.573 3.034-0.011 0.612-5e-3 1.267-0.02 1.939-0.046 2.073-0.229 4.18-1.696 5.833-0.794 0.899-0.953 2.359-0.907 3.893 0.01 0.352 0.031 0.71 0.054 1.067 0.12 1.93 0.379 3.746-0.462 5.307-0.215 0.404 0.465 1.014 1.244 1.578 0.04 0.031 0.081 0.062 0.122 0.093 0.739 0.532 1.529 1.017 1.525 1.338-1e-3 0.043-0.01 0.096-5e-3 0.164 0.093 0.95 0.242 2.229-4.053 6.182-0.017 0.013-0.033 0.027-0.05 0.04-2.829 2.803-3.747 5.369 1.756 3.793 1.381-0.396 2.426-0.726 3.23-0.985 1.722-0.56 2.368-0.734 2.773-0.776 0.112-0.014 0.219-0.027 0.308-0.033 0.38-0.029 0.695-0.042 2.092-0.797 4.19-2.327 10.749-6.7 21.57-16.481 9.137-8.333 13.424-14.475 16.69-20.152 5e-3 -8e-3 0.01-0.016 0.014-0.025 0.387-0.675 0.756-1.341 1.12-2.009zm-18.13 28.389c0.18-0.065 5.311-1.316 11.477-2.788 6.17-1.474 11.089-2.429 10.967-2.138-0.307 0.658-0.636 1.305-0.989 1.925-0.146 0.277-5.359 1.186-11.652 2.04-6.299 0.853-11.267 1.517-11.086 1.471 0.435-0.146 0.863-0.318 1.283-0.51zm99.942-106.4c-0.105-1.883-3.93-0.037-8.432 4.156-4.499 4.189-8.097 9.029-8.142 10.75-0.017 0.917-0.129 2.502-0.346 4.612-0.832 10.885-6.056 34.788-13.153 52.653-2.74 7.462-5.443 14.052-6.819 19.652-0.4 1.618-0.878 3.072-1.375 4.412-2.157 6.054-17.702 11.395-17.128 18.249 1.709 18.344 1.551 45.791-20.366 60.857-12.1 8.504-29.745 9.715-42.113-0.26-9.407-7.653-17.399-12.424-25.634-18.275-6.566-3.849-26.123-10.684-29.253-14.932-0.485-0.515-5.5 1.263-11.198 3.984-5.695 2.719-9.831 5.515-9.241 6.231 3.555 5.365 26.301 16.711 35.393 22.32 11.102 8.111 22.5 14.462 35.585 22.848 16.997 10.905 40.139 13.308 60.711 6.132 35.824-11.628 58.809-50.259 57.167-87.096-0.599-14.186-13.449-17.663-11.452-24.624 0.421-1.691 0.825-3.522 1.113-5.564 1.002-7.105 3.261-15.154 5.492-23.933 5.605-20.229 9.041-45.328 9.167-57.005 0.075-2.344 0.077-4.12 0.024-5.167zm-59.683-27.273c-13.645-7.279-36.39-9.068-54.809-6.017-9.033 1.354-17.115 3.536-23.477 5.207-9.94 2.645-14.472 9.832-17.975 16.795-0.039 0.073-0.077 0.146-0.115 0.22-2.365 4.762-4.354 9.493-7.562 13.486-1.524 1.895-3.285 3.615-5.532 5.181-6.995 4.854-18.807 8.497-30.373 15.055-6e-3 7e-3 -0.013 0.015-0.02 0.022-11.19 5.954-32.159 9.283-36.316 19.419-13.761 35.09 3.844 59.272 16.148 67.156 11.119 7.452 11.43 14.301 13.385 21.831 1.862 7.239 5.746 15.019 21.011 14.962 6.041-1.454 20.793-10.757 15.44-10.441-0.16-0.012-0.32-0.024-0.481-0.037-1.501-0.135-2.748-0.323-3.905-0.848-1.167-0.962-1.568-1.88-1.914-2.715-1.256-2.095-9.16-16.404-21.003-23.669-11.729-7.106-0.499-21.743 6.972-43.149 1.948-5.845-2.875-21.484 7.355-26.643 0.027-0.014 0.053-0.027 0.079-0.041 9.81-4.795 19.705-7.084 25.279-11.166 1.759-1.293 3.108-2.789 4.259-4.48 2.56-3.772 3.973-8.48 5.756-13.137 0.024-0.068 0.049-0.136 0.073-0.204 2.525-6.542 5.913-13.062 13.847-15.31 5.389-1.509 12.173-3.51 19.778-4.851 15.318-2.951 34.443-1.942 45.824 4.394 1.011 0.545 3.759-3.676 6.158-9.436 2.396-5.758 3.352-10.946 2.118-11.584zm49.932-131.65c-64.466-51.549-171.19-43.645-229.9 11.686-4.476 3.996-8.674 8.163-12.694 12.537-18.185 10.933-41.703 29.692-60.469 51.971-0.207 0.255-0.413 0.511-0.619 0.767-18.729 21.949-32.479 46.557-40.622 64.541-28.638 64.758-21.712 110.01-9.349 129.35 12.397 18.232 13.466 22.396 14.59 29.799 0.041 0.197 0.082 0.393 0.123 0.59-0.016 0.015-0.033 0.031-0.049 0.047-0.253 0.291-0.386 0.525-0.441 0.643-0.112 0.242-0.137 0.429-0.147 0.499-0.023 0.163-4e-3 0.293-1e-3 0.34 0.016 0.192 0.057 0.408 0.093 0.545 0.331 1.29 1.744 5.206 3.344 8.201 1.634 3.071 3.39 5.105 5.314 7.185 0.197 0.21 0.394 0.42 0.592 0.629 1.749 1.863 3.666 3.875 6.017 6.775 1.438 1.773 7.463 1.61 13.442-0.3 5.975-1.912 9.695-4.669 8.332-6.23-2.374-2.742-4.34-4.65-6.039-6.33-0.19-0.186-0.381-0.373-0.571-0.56-1.779-1.783-3.247-3.42-4.642-5.871-1.475-3.653-2.016-6.478-2.474-9.076-1.078-6.967-2.208-11.288-15.007-28.747-11.524-16.771-18.577-57.179 7.491-117.04 7.403-16.535 19.89-39.171 36.927-59.363 0.199-0.236 0.399-0.471 0.6-0.706 17.092-20.518 38.519-37.832 55.136-47.908 4.461-2.746 8.985-5.263 13.658-7.616 64.691-32.143 137.74-26.292 208.94-15.396 13.076 5.9 24.65 11.812 34.998 17.87 30.213 17.824 51.056 37.171 57.343 64.039 1.295 5.882 8.751 17.636 16.833 35.167 2.365 5.142 4.776 10.767 7.093 16.933 1.507 4.018 2.957 8.224 4.34 12.675 3.771 12.171 6.94 26.05 8.462 41.217 0.43 4.318 0.628 8.228 0.723 11.919 0.076 15.856 0.375 27.826 1.084 56.778 2.279 35.655-11.725 96.293-29.902 126.44-8.178 15.268-13.628 23.865-17.268 30.17-1.028 1.745-1.93 3.302-2.785 4.717-2.243 3.697-4.073 6.532-6.933 9.82-16.042 18.133-32.926 28.132-55.345 35.575-6.728 2.188-13.995 4.087-22.069 5.688-2.173 0.428-2.321 5.582-0.31 11.538 2.005 5.958 5.619 10.419 8.031 9.916 9.058-1.9 17.204-4.137 24.739-6.692 24.311-8.408 42.889-19.506 60.769-39.316 3.308-3.726 5.5-7.014 8.064-11.074 0.947-1.505 1.937-3.121 3.035-4.91 4.036-6.707 10.094-15.929 19.21-32.518 20.284-32.838 36.263-99.392 33.86-138.61-0.694-31.617-1.282-44.539-1.644-61.831-0.168-4.045-0.441-8.356-0.984-13.115-1.936-16.853-5.676-32.221-10.038-45.619-1.512-4.633-3.09-9.024-4.713-13.205-2.607-6.696-5.289-12.783-7.925-18.344-9.244-19.392-17.057-31.336-18.378-36.694-7.772-29.479-31.427-51.283-64.628-70.657-11.136-6.461-23.478-12.686-37.231-18.835zm-138.47 505.2c2.169 0.73 4.873-3.696 5.997-9.832 1.124-6.135 0.442-11.635-1.486-12.316-10.269-3.631-17.227-7.006-22.568-9.727-9.834-5.122-14.241-7.917-21.482-10.714-18.643-7.33-35.415-17.202-49.27-27.603-23.148-17.301-37.977-35.693-46.149-44.992-1.288-1.463-6.55 0.18-11.791 3.666-5.231 3.486-8.353 7.648-6.932 9.301 8.866 10.264 25.114 30.466 50.574 49.595 15.315 11.556 33.885 22.592 54.638 30.815 7.77 3.024 12.418 5.85 23.088 11.23 5.922 2.918 13.711 6.609 25.381 10.577z" fill="url(#paint8_linear_4210_1950)"/>
  </g>
 </g>
 <defs>
  <filter id="filter0_d_4210_1950" x="71.939" y="0" width="1102.5" height="1269.5" color-interpolation-filters="sRGB" filterUnits="userSpaceOnUse">
   <feFlood flood-opacity="0" result="BackgroundImageFix"/>
   <feColorMatrix in="SourceAlpha" result="hardAlpha" values="0 0 0 0 0 0 0 0 0 0 0 0 0 0 0 0 0 0 127 0"/>
   <feOffset dy="11.5556"/>
   <feGaussianBlur stdDeviation="5.77779"/>
   <feComposite in2="hardAlpha" operator="out"/>
   <feColorMatrix values="0 0 0 0 0 0 0 0 0 0 0 0 0 0 0 0 0 0 0.25 0"/>
   <feBlend in2="BackgroundImageFix" result="effect1_dropShadow_4210_1950"/>
   <feBlend in="SourceGraphic" in2="effect1_dropShadow_4210_1950" result="shape"/>
  </filter>
  <filter id="filter1_ii_4210_1950" x="248.51" y="232.88" width="748.25" height="784.53" color-interpolation-filters="sRGB" filterUnits="userSpaceOnUse">
   <feFlood flood-opacity="0" result="BackgroundImageFix"/>
   <feBlend in="SourceGraphic" in2="BackgroundImageFix" result="shape"/>
   <feColorMatrix in="SourceAlpha" result="hardAlpha" values="0 0 0 0 0 0 0 0 0 0 0 0 0 0 0 0 0 0 127 0"/>
   <feOffset dy="-24.4912"/>
   <feGaussianBlur stdDeviation="0.96995"/>
   <feComposite in2="hardAlpha" k2="-1" k3="1" operator="arithmetic"/>
   <feColorMatrix values="0 0 0 0 0.0664879 0 0 0 0 0.184505 0 0 0 0 0.263184 0 0 0 0.29 0"/>
   <feBlend in2="shape" result="effect1_innerShadow_4210_1950"/>
   <feColorMatrix in="SourceAlpha" result="hardAlpha" values="0 0 0 0 0 0 0 0 0 0 0 0 0 0 0 0 0 0 127 0"/>
   <feOffset dy="28.371"/>
   <feGaussianBlur stdDeviation="0.96995"/>
   <feComposite in2="hardAlpha" k2="-1" k3="1" operator="arithmetic"/>
   <feColorMatrix values="0 0 0 0 1 0 0 0 0 0.953538 0 0 0 0 0.953538 0 0 0 0.64 0"/>
   <feBlend in2="effect1_innerShadow_4210_1950" result="effect2_innerShadow_4210_1950"/>
  </filter>
  <radialGradient id="paint0_radial_4210_1950" cx="0" cy="0" r="1" gradientTransform="matrix(0 -655.78 641.34 0 624.07 624.82)" gradientUnits="userSpaceOnUse">
   <stop stop-color="#1794C1" offset=".1"/>
   <stop stop-color="#1EA2D1" offset=".6"/>
   <stop stop-color="#187EA5" offset="1"/>
  </radialGradient>
  <linearGradient id="paint1_linear_4210_1950" x1="603.49" x2="603.49" y1="94.769" y2="1323.6" gradientUnits="userSpaceOnUse">
   <stop stop-color="#F4FBFD" offset="0"/>
   <stop stop-color="#F4FBFD" offset=".49519"/>
   <stop stop-color="#F4FBFD" offset=".75332"/>
  </linearGradient>
  <linearGradient id="paint2_linear_4210_1950" x1="622.71" x2="606.14" y1="292.25" y2="990.72" gradientUnits="userSpaceOnUse">
   <stop stop-color="#F4FBFD" offset="0"/>
   <stop stop-color="#F4FBFD" offset=".49038"/>
   <stop stop-color="#F4FBFD" offset=".99038"/>
  </linearGradient>
  <radialGradient id="paint3_radial_4210_1950" cx="0" cy="0" r="1" gradientTransform="matrix(.074296 803.18 -769.84 .071212 622.64 625.14)" gradientUnits="userSpaceOnUse">
   <stop stop-color="#FCFEFE" offset=".052885"/>
   <stop stop-color="#E7F4F6" offset=".24159"/>
   <stop stop-color="#E7F4F7" offset=".85907"/>
  </radialGradient>
  <linearGradient id="paint4_linear_4210_1950" x1="906.07" x2="322.21" y1="185.09" y2="1116.7" gradientUnits="userSpaceOnUse">
   <stop stop-color="#CEE4EC" offset="0"/>
   <stop stop-color="#62D8FF" stop-opacity=".12" offset=".11058"/>
   <stop stop-color="#D4EBF3" stop-opacity=".38" offset=".51923"/>
  </linearGradient>
  <linearGradient id="paint5_linear_4210_1950" x1="382.39" x2="849.82" y1="247.74" y2="1067" gradientUnits="userSpaceOnUse">
   <stop stop-color="#CEE4EC" offset="0"/>
   <stop stop-color="#62D8FF" stop-opacity=".12" offset=".11058"/>
   <stop stop-color="#D4EBF3" stop-opacity=".38" offset=".51923"/>
  </linearGradient>
  <linearGradient id="paint6_linear_4210_1950" x1="365.39" x2="891.57" y1="361.25" y2="907.14" gradientUnits="userSpaceOnUse">
   <stop stop-color="#CEE4EC" offset="0"/>
   <stop stop-color="#62D8FF" stop-opacity=".12" offset=".11058"/>
   <stop stop-color="#D4EBF3" stop-opacity=".38" offset=".51923"/>
  </linearGradient>
  <linearGradient id="paint7_linear_4210_1950" x1="721.26" x2="526.63" y1="389.08" y2="877.62" gradientUnits="userSpaceOnUse">
   <stop stop-color="#CEE4EC" offset="0"/>
   <stop stop-color="#62D8FF" stop-opacity=".12" offset=".11058"/>
   <stop stop-color="#D4EBF3" stop-opacity=".38" offset=".51923"/>
  </linearGradient>
  <linearGradient id="paint8_linear_4210_1950" x1="563.02" x2="661.34" y1="546.95" y2="752.3" gradientUnits="userSpaceOnUse">
   <stop stop-color="#CEE4EC" offset="0"/>
   <stop stop-color="#62D8FF" stop-opacity=".12" offset=".11058"/>
   <stop stop-color="#D4EBF3" stop-opacity=".38" offset=".51923"/>
  </linearGradient>
  <mask id="mask41" maskUnits="userSpaceOnUse">
   <path d="m623.21 0 539.71 311.6v623.21l-539.71 311.61-539.71-311.61v-623.21z" fill="#fff"/>
  </mask>
 </defs>
</svg>
