<?xml version="1.0" encoding="UTF-8"?>
<svg width="17" height="24" version="1.1" viewBox="0 0 17 24" xmlns="http://www.w3.org/2000/svg">
 <path d="m8.5001 0c-4.6944 0-8.5001 3.5263-8.5001 7.8764v11.193l5.3212 4.9308h6.4044l5.2744-4.8871v-11.237c-2.1e-5 -4.3501-3.8055-7.8764-8.5001-7.8764zm2.09e-4 0.94299c4.205 0 7.6382 3.2805 7.6382 7.3574v10.17l-0.10029 0.09643-4.5377 4.3627-0.09435 0.09055h-5.7713l-0.094369-0.09055-4.5783-4.4016-0.014707-0.01437-0.066993-0.06381v-4.2e-4l-0.018587-0.01783v-10.131c3.26e-5 -4.0768 3.4334-7.3572 7.6384-7.3574zm6.9879 12.922c-0.52614 0.35164-1.0145 0.67538-1.471 0.97089-0.29722 0.55279-0.71605 1.1036-1.3109 1.5205h-2.09e-4c-0.34514 0.24184-0.73019 0.36616-1.076 0.44831-0.17414 0.04137-0.34985 0.07431-0.51204 0.10423-0.16642 0.03072-0.31789 0.0582-0.46609 0.09028-0.52238 0.1131-0.84267 0.25582-1.0437 0.56855l-0.14298 0.2222v4.576h0.28145v-1.8111c0-0.23092 0.13174-0.4131 0.2506-0.53878 0.12344-0.13049 0.28265-0.251 0.42504-0.35578 0.15122-0.11125 0.28566-0.20642 0.39645-0.30284 0.11576-0.10074 0.16136-0.16659 0.17362-0.20148 0.0053-0.01484 0.0091-0.03954 0.01084-0.072-0.32642-0.11507-0.56421-0.41929-0.58253-0.78192l-9.92e-4 -0.04515 9.92e-4 -0.04513c0.02338-0.46316 0.40466-0.83136 0.87153-0.83136l0.04495 9.97e-4c0.46105 0.02351 0.82761 0.4065 0.82761 0.87548 0 0.37944-0.23998 0.7024-0.57577 0.82441-0.0023 0.08562-0.01339 0.18148-0.04453 0.27021-0.0659 0.18768-0.21306 0.33786-0.34234 0.45037-0.13427 0.11684-0.29731 0.23235-0.43382 0.33278-0.1453 0.10692-0.26403 0.19932-0.3466 0.28664-0.08713 0.09215-0.08966 0.13278-0.08966 0.13356v1.8111h0.56414v-1.3064c0-0.3854 0.22532-0.68391 0.47609-0.91112 0.25169-0.22804 0.58044-0.43005 0.87808-0.61307 0.31038-0.19085 0.58922-0.3624 0.7935-0.54432 0.20606-0.1835 0.28083-0.32931 0.28085-0.45692v-0.61943c-0.33833-0.10856-0.58707-0.41833-0.60581-0.78951l-9.91e-4 -0.04513 9.91e-4 -0.04515c0.02338-0.46314 0.40466-0.83136 0.87153-0.83136l0.04493 9.96e-4c0.46105 0.02349 0.82763 0.4065 0.82763 0.87548-2.1e-5 0.37064-0.2291 0.68717-0.5527 0.81535v0.63872c-2e-5 0.38133-0.22892 0.67507-0.47814 0.89702-0.25104 0.22355-0.57954 0.42343-0.87624 0.60588-0.30944 0.19029-0.58782 0.36356-0.79147 0.54802-0.20453 0.18531-0.28286 0.33698-0.28288 0.47451v0.98263l4.0065-3.852zm-7.4004 3.3561 0.00532 0.0065v5.1384h0.75777v-6.8893l-0.047996 0.07081-0.029219 0.03672c-0.14003 0.1548-0.38126 0.1572-0.52593 0.01168-0.024091-0.01307-0.04748-0.02832-0.069459-0.04595l-0.00446-0.0035-0.00411-0.0037-0.016334-0.01437-0.0051-0.0045-0.00489-0.0047c-0.018781-0.01843-0.037099-0.03725-0.055543-0.05561zm-6.5753 0.93046 4.0061 3.8515v-0.94355c0-0.13753-0.078327-0.2892-0.28288-0.47451-0.20363-0.18447-0.48203-0.35776-0.79147-0.54802-0.29668-0.18245-0.62519-0.38236-0.87622-0.60588-0.24925-0.22195-0.47814-0.51569-0.47816-0.89702v-0.59071c-0.31588-0.12034-0.54436-0.41927-0.56228-0.77432l-0.00103-0.04513 0.00103-0.04515c0.023362-0.46312 0.40471-0.83132 0.87153-0.83136l0.044925 9.96e-4c0.46105 0.02349 0.82761 0.4065 0.82761 0.87548 0 0.38709-0.24973 0.71526-0.59621 0.83136v0.5788c2.09e-5 0.12761 0.074813 0.27342 0.28085 0.45692 0.20428 0.1819 0.48314 0.35347 0.79352 0.54432 0.29762 0.18302 0.62637 0.38505 0.87806 0.61307 0.25077 0.2272 0.47609 0.52571 0.47611 0.91112v1.3064h0.47712v-1.8111c0 0.0029-7.509e-4 -0.03669-0.092111-0.13007-0.085834-0.087683-0.20915-0.18027-0.35949-0.28721-0.14143-0.1006-0.30973-0.21579-0.44832-0.33238-0.13289-0.11179-0.2852-0.26199-0.35376-0.45077-0.034259-0.094376-0.045177-0.19661-0.046787-0.28622-0.305-0.12541-0.52371-0.41898-0.54124-0.76612l-0.00103-0.04515 0.00103-0.04513c0.023362-0.46316 0.40464-0.83136 0.87151-0.83136l0.044946 9.97e-4c0.46105 0.02351 0.82761 0.4065 0.82761 0.87548 0 0.39427-0.25912 0.72755-0.61559 0.83773 0.00203 0.02614 0.00515 0.04601 0.0096 0.05828 0.012277 0.03381 0.059085 0.09978 0.17972 0.20128 0.11497 0.09671 0.25454 0.19214 0.41075 0.30326 0.14726 0.10473 0.31145 0.22506 0.43874 0.35515 0.12173 0.12442 0.25979 0.30763 0.25979 0.54226v1.8111h0.38461v-4.5906l-0.16994-0.20682c-0.24446-0.2978-0.5869-0.43867-1.0782-0.55479-0.1467-0.034665-0.29459-0.064521-0.45812-0.098703-0.15881-0.033175-0.32983-0.069774-0.49979-0.11448l-0.12848-0.035486c-0.30277-0.087843-0.62404-0.21342-0.92056-0.42123h-1.882e-4c-0.59075-0.41413-1.0089-0.95927-1.3076-1.5074-0.45758-0.29874-0.94764-0.62584-1.4757-0.98217zm9.7799-0.1943c-0.16475 0-0.2984 0.13425-0.2984 0.29975l0.0016 0.03057c0.01524 0.15114 0.14231 0.26899 0.29676 0.26899 0.15446 0 0.28152-0.11784 0.29678-0.26899l0.0014-0.03057-0.0014-0.03057c-0.01421-0.14108-0.12587-0.25323-0.26632-0.26754zm-5.6814 0c-0.16473 0-0.2984 0.13425-0.2984 0.29975l0.00163 0.03057c0.015247 0.15114 0.14231 0.26899 0.29676 0.26899 0.15448 0 0.28154-0.11784 0.29679-0.26899l0.00142-0.03057-0.00142-0.03057c-0.014223-0.14108-0.12591-0.25323-0.26633-0.26754zm-2.2118-1.133c-0.16471 6.3e-5 -0.29842 0.1343-0.29842 0.29977l0.00163 0.03057c0.015247 0.15108 0.14235 0.26893 0.29679 0.26897 0.15446 0 0.28152-0.11784 0.29676-0.26897l0.00142-0.03057-0.00142-0.03057c-0.014221-0.14108-0.12591-0.25325-0.26633-0.26756zm10.192-0.04391c-0.16475 0-0.29842 0.13428-0.29842 0.29977l0.0016 0.03057c0.01526 0.15112 0.14231 0.26899 0.29679 0.26899 0.15446-2.1e-5 0.28152-0.11786 0.29676-0.26899l0.0014-0.03057-0.0014-0.03057c-0.01419-0.14108-0.12585-0.25325-0.26629-0.26756zm-10.374-3.4444c0.2213 0.75098 0.63373 1.6924 1.4369 2.3002l0.088847 0.06463c0.20185 0.14146 0.4343 0.2363 0.68934 0.31044l0.1107 0.03057c0.1491 0.03921 0.30314 0.07246 0.46099 0.10545 0.15632 0.03267 0.31864 0.06553 0.47814 0.10322 0.0841 0.01987 0.16883 0.04153 0.25347 0.06565-0.51769-0.48879-1.0547-0.90994-1.8748-1.3064-0.14555-0.07045-0.20681-0.24603-0.13685-0.3923 0.070087-0.14631 0.24504-0.20785 0.39071-0.13747 0.97588 0.47173 1.5897 0.98492 2.1775 1.5565v-0.13911c-0.033966-0.057-0.068769-0.1141-0.10458-0.1707-0.42276-0.66816-0.9668-1.3014-1.4496-1.6398-0.07199-0.050445-0.14626-0.097066-0.22201-0.14054-0.32849 0.17165-0.70294 0.33486-1.1309 0.48298h-1.883e-4c-0.3017 0.104-0.61911-0.1299-0.60233-0.4557v-1.89e-4l0.00775-0.12764c0.010207-0.1472 0.024722-0.28903 0.042478-0.42572-0.12921-0.01954-0.25182-0.03586-0.3652-0.05048-0.087781-0.01131-0.17226-0.02258-0.2504-0.03364zm10.307 0.05355c-0.11106 0.01407-0.2313 0.02969-0.35804 0.04862 0.01761 0.1364 0.03195 0.27779 0.04208 0.4245l0.0076 0.12722c0.01694 0.32572-0.30034 0.5604-0.60254 0.45589-0.42836-0.14827-0.80291-0.31177-1.1315-0.48358-0.07454 0.04278-0.14764 0.08851-0.21836 0.13808-0.48006 0.33656-1.0205 0.9671-1.4402 1.633-0.05298 0.08408-0.10359 0.1693-0.15237 0.25422v0.14074c0.59892-0.57361 1.2229-1.0883 2.217-1.5612 0.14609-0.0695 0.32071-0.0068 0.3899 0.13993 0.06915 0.14675 0.0068 0.32198-0.13929 0.39148-0.74512 0.35446-1.2601 0.72902-1.7367 1.1535 0.02863-0.0066 0.05727-0.0129 0.08579-0.01908 0.16276-0.03524 0.32856-0.06505 0.48979-0.0948 0.16216-0.02992 0.3203-0.06011 0.47325-0.09644 0.30703-0.07295 0.58167-0.16879 0.80902-0.32807 0.85712-0.60078 1.2879-1.5805 1.5145-2.3569-0.07804 0.01086-0.16238 0.02175-0.24979 0.03284zm-3.58-0.75381c-0.0062 0.08452-0.0151 0.17194-0.02696 0.26199-0.06676 0.50684-0.23044 1.0912-0.5674 1.7481v0.3853c0.42309-0.61612 0.94812-1.2103 1.4667-1.5739 0.0077-0.0053 0.01563-0.01032 0.02327-0.01559-0.28168-0.20043-0.51637-0.4057-0.71364-0.60813-0.06478-0.06649-0.12528-0.13259-0.18198-0.19779zm-2.8792-0.0094c-0.05509 0.06314-0.11359 0.12728-0.17627 0.19163-0.19911 0.20438-0.43654 0.41158-0.7218 0.61387 0.00583 0.0041 0.011734 8e-3 0.017548 0.01212 0.49238 0.34511 0.99161 0.89695 1.4046 1.4787v-0.4194c-0.29279-0.60624-0.43857-1.1481-0.4992-1.6219-0.011189-0.08759-0.019137-0.1727-0.02491-0.25502zm0.72101-0.86832c-0.036246 0.27863-0.060881 0.61937-0.00775 1.0345 0.066569 0.52033 0.25795 1.1693 0.7263 1.941 0.46427-0.76493 0.65665-1.4091 0.72488-1.927 0.054818-0.41614 0.031145-0.7586-0.00446-1.0386-0.18138 0.03299-0.36737 0.05349-0.55678 0.06013l-0.13724 0.0025c-0.25487-2e-5 -0.50401-0.02527-0.74489-0.07244zm7.7022-0.85168c-1.2478 0.33292-2.2155 0.3229-2.9595 0.18405-0.07732-0.01444-0.15201-0.0307-0.22425-0.04761 0.04323 0.06662 0.0863 0.13633 0.12846 0.20949 0.21904 0.38011 0.41608 0.84575 0.55086 1.421 0.16257-0.02534 0.3126-0.04525 0.44281-0.06177 0.1718-0.02179 0.28694-0.03645 0.36581-0.05026l0.06761-0.01374 0.0382-8e-3c0.19121-0.034 0.39057 0.02376 0.53411 0.16003v2.1e-4c0.15479 0.14713 0.22511 0.36858 0.17096 0.58393v1.89e-4c-0.04829 0.19167-0.11081 0.41045-0.19179 0.64425 0.29902-0.19741 0.61189-0.40524 0.93955-0.62454l0.13724-0.09192zm-13.976 2.2922 0.12827 0.08679c0.32941 0.22265 0.64381 0.43378 0.94425 0.63396-0.08341-0.23779-0.14812-0.46022-0.19771-0.65492v-2.1e-4c-0.054839-0.21556 0.015122-0.4378 0.17012-0.58536v-2.1e-4l0.029616-0.02626c0.15107-0.12619 0.35401-0.17243 0.54413-0.12579h2.093e-4c0.076758 0.01888 0.20612 0.03593 0.43524 0.06547 0.13561 0.01748 0.29323 0.03826 0.46406 0.06545 0.13482-0.57508 0.33165-1.0406 0.55065-1.4206 0.043691-0.0758 0.088346-0.14791 0.13317-0.21668-0.080711 0.01937-0.16464 0.03771-0.25184 0.05398-0.74221 0.13841-1.707 0.14839-2.9501-0.18199zm9.6536-2.4661c-0.12516 0.12656-0.26129 0.2459-0.40849 0.35618l-0.10989 0.07921c-0.20434 0.14184-0.41916 0.2608-0.64073 0.35761 0.14256 0.24687 0.3332 0.53869 0.63358 0.84697 0.37026 0.37998 0.9156 0.79144 1.7494 1.1496-0.01516-0.11492-0.03304-0.2251-0.05331-0.33076l-0.07375-0.38408 0.02553-0.0051c-0.12007-0.5083-0.29199-0.90847-0.47529-1.2265-0.21331-0.37017-0.44497-0.63574-0.64705-0.84306zm-5.3181-0.015411c-0.20206 0.20728-0.4337 0.4727-0.64705 0.84285-0.18355 0.31847-0.3556 0.71938-0.47569 1.2286l0.010416 0.0023-0.073747 0.38305c-0.020393 0.10618-0.038212 0.21697-0.053502 0.3324 0.25523-0.10632 0.48272-0.21755 0.68608-0.33056 0.47249-0.26895 0.81924-0.55174 1.0794-0.81884 0.3004-0.30845 0.49107-0.60032 0.63358-0.8472-0.22178-0.096856-0.43683-0.21567-0.64134-0.35761l-0.10989-0.079208c-0.1471-0.11018-0.28321-0.22932-0.4083-0.35576zm2.6175-5.0823c-0.30446 0-0.59788 0.04265-0.87398 0.12188-0.014096 0.00406-0.028382 0.00697-0.042685 0.00924-0.27319 0.090616-0.53771 0.22033-0.78452 0.39167l-0.090273 0.064836c-0.20654 0.15478-0.38618 0.3306-0.53821 0.52136-0.00944 0.011829-0.019806 0.022796-0.030641 0.033238-0.13559 0.19039-0.24918 0.39938-0.33558 0.62515l-0.035932 0.10034c-0.096816 0.2847-0.14415 0.57296-0.14687 0.8568-1.255e-4 0.012609-9.845e-4 0.025125-0.00244 0.037541 1.046e-4 0.00221 3.555e-4 0.00441 3.974e-4 0.00655 0.00606 0.23611 0.043065 0.47508 0.11378 0.71215l0.032481 0.10135c0.095645 0.28128 0.23264 0.53813 0.40216 0.76716 0.01052 0.010168 0.020622 0.020926 0.029825 0.032418 0.17305 0.21621 0.38145 0.4128 0.62438 0.58147 0.24676 0.17129 0.51125 0.30084 0.78432 0.39148 0.015371 0.0025 0.030664 0.0059 0.045766 0.01046 0.2876 0.08669 0.59443 0.13354 0.9134 0.13356 0.30258 0 0.59432-0.04227 0.86908-0.12064 0.016667-0.0048 0.033695-8e-3 0.050638-0.01025 0.27003-0.09051 0.53158-0.21911 0.77574-0.3886 0.2245-0.15585 0.41928-0.33584 0.58416-0.53285 0.01106-0.0254 0.02491-0.04988 0.04187-0.07263 0.1724-0.23117 0.31151-0.49095 0.40828-0.77555l0.03248-0.10135c0.05998-0.20106 0.09552-0.40341 0.10865-0.60424-0.01752-0.04238-0.02792-0.087696-0.02838-0.13419-0.0028-0.28368-0.05005-0.57189-0.14684-0.85659-0.0891-0.26199-0.21396-0.50283-0.36746-0.71955-0.01423-0.013089-0.02788-0.026871-0.03982-0.042272-0.17821-0.22969-0.39575-0.4383-0.65156-0.6159l-0.09232-0.061776c-0.21247-0.13638-0.43696-0.24323-0.66769-0.32191-0.010518-0.00214-0.02108-0.00426-0.031457-0.0074-0.28693-0.086199-0.5928-0.13293-0.91075-0.13295zm3.6091 3.1712c-0.02964 0.21128-0.07941 0.42301-0.15074 0.63275-0.07688 0.22613-0.17571 0.43995-0.29269 0.64015 0.26874 0.12051 0.60591 0.25098 1.0431 0.33259 0.5372 0.10026 1.2347 0.12728 2.1312-0.05149-0.6099-0.64242-1.1857-1.0116-1.6789-1.2329-0.40458-0.18155-0.75924-0.26668-1.0521-0.32109zm-7.1576-0.016409c-0.29285 0.054398-0.64749 0.13955-1.0521 0.32109-0.49324 0.22132-1.0692 0.59027-1.6791 1.2327 0.89653 0.17875 1.594 0.15209 2.131 0.05189 0.43721-0.081535 0.77436-0.21207 1.0431-0.33258-0.11687-0.20018-0.21543-0.41394-0.29227-0.63994-0.071383-0.20991-0.12112-0.42173-0.15074-0.63315zm10.418-1.8866c-0.68549 0.73045-1.3503 1.1623-1.9404 1.4245-0.06279 0.0279-0.12486 0.053238-0.18566 0.077358 0.0716 0.028113 0.14475 0.058532 0.21917 0.091919 0.6249 0.28042 1.3325 0.75152 2.0594 1.5655v-1.7618c0-0.4789-0.05273-0.94637-0.15258-1.3974zm-13.672 0.0069731c-0.098838 0.44892-0.15134 0.91402-0.15135 1.3905v1.735c0.7237-0.80764 1.4282-1.2758 2.0505-1.555 0.076591-0.034375 0.15186-0.06559 0.22549-0.094376-0.07291-0.028258-0.1476-0.058618-0.22346-0.092338-0.57885-0.25727-1.2294-0.67814-1.9011-1.3837zm13.124-0.45261c-0.88866-0.1772-1.5816-0.15251-2.1168-0.054584-0.43911 0.080363-0.77842 0.2109-1.0488 0.33137 0.08465 0.14988 0.15902 0.30716 0.22182 0.47127l0.04535 0.12537c0.07684 0.22605 0.12867 0.45434 0.15726 0.682 0.29156-0.053408 0.64469-0.13709 1.0486-0.31658 0.4963-0.22056 1.0771-0.59061 1.6926-1.2388zm-10.499-0.08843c-0.53522-0.09799-1.2283-0.12284-2.117 0.054374 0.61553 0.64834 1.1965 1.0182 1.6928 1.2388 0.40395 0.17951 0.75706 0.26336 1.0486 0.31679 0.02855-0.22775 0.080147-0.45623 0.15707-0.68242 0.071279-0.20964 0.16121-0.40885 0.26715-0.59645-0.27039-0.12047-0.60959-0.25075-1.0486-0.33114zm8.0971-3.091c-0.83382 0.35486-1.3816 0.7636-1.7549 1.142-0.30256 0.30666-0.49646 0.5984-0.64094 0.84594 0.2067 0.093305 0.40726 0.20609 0.59865 0.33895 0.20375 0.14144 0.38798 0.29956 0.55249 0.47045 0.20147-0.20655 0.43181-0.47136 0.64421-0.83958 0.26366-0.45709 0.50422-1.0839 0.60049-1.9578zm-7.8047-0.026472c0.095582 0.8676 0.3332 1.4917 0.59457 1.9479 0.21185 0.36971 0.44263 0.63591 0.64439 0.84367 0.15691-0.15913 0.33119-0.30674 0.52267-0.43969 0.20346-0.14123 0.41751-0.25958 0.63808-0.35618-0.14329-0.24689-0.33542-0.53813-0.63624-0.84491-0.37348-0.38087-0.92326-0.79323-1.7635-1.1508zm8.5196 0.00267c-0.09901 1.0041-0.3739 1.7469-0.69589 2.3052-0.04407 0.076371-0.08898 0.14907-0.13419 0.21829 0.08232-0.019518 0.16793-0.03786 0.25694-0.054163 0.64151-0.11741 1.448-0.13871 2.455 0.0712-0.41345-0.9832-1.0627-1.8521-1.8819-2.5405zm-9.2286 0.023802c-0.79325 0.67372-1.4251 1.5172-1.8345 2.4703 0.97889-0.19661 1.7658-0.17396 2.3944-0.058891 0.09004 0.016493 0.17663 0.035003 0.25981 0.054773-0.045992-0.070698-0.091671-0.14507-0.13645-0.22323-0.31368-0.5475-0.58083-1.2713-0.68321-2.243zm4.6151-1.2323c-0.46158 0.76047-0.65404 1.4015-0.72326 1.9178-0.055633 0.41511-0.033341 0.75757 0.00184 1.0378 0.18294-0.033511 0.37043-0.054437 0.56149-0.061139l0.13787-0.00245c0.25385 0 0.5019 0.025001 0.74184 0.071812 0.035744-0.27904 0.059063-0.62005 0.0048893-1.0343-0.06776-0.51832-0.25968-1.1633-0.72466-1.9295zm0.55249-0.42963c0.54105 0.87183 0.77702 1.6314 0.86028 2.2682 0.01251 0.095553 0.02131 0.18808 0.02738 0.27739 0.05956-0.067967 0.12336-0.13684 0.19179-0.20619 0.45821-0.46438 1.1146-0.94223 2.0848-1.3408-0.92947-0.55869-2.0064-0.91389-3.1642-0.99858zm-1.1056 0.00205c-1.1428 0.08769-2.2061 0.43888-3.1258 0.98915 0.95239 0.39776 1.5981 0.87166 2.0494 1.332 0.068058 0.069396 0.13137 0.13843 0.19058 0.2064 0.0063811-0.08862 0.015268-0.18039 0.027984-0.27512 0.084915-0.63357 0.32142-1.3876 0.85783-2.2525z" fill="#006793" stroke-width=".20962"/>
</svg>
