<?xml version="1.0" encoding="UTF-8"?>
<svg width="415" height="115" version="1.1" viewBox="0 0 415 115" xmlns="http://www.w3.org/2000/svg">
 <path d="m40.641 0.3835c-22.445 0-40.641 16.784-40.641 37.489v53.274l25.442 23.469h30.621l25.218-23.261v-53.482c-1e-4 -20.705-18.195-37.489-40.641-37.489zm1e-3 4.4883c20.105 0 36.52 15.614 36.52 35.019v48.404l-0.4795 0.459-21.696 20.765-0.4511 0.431h-27.594l-0.4512-0.431-21.89-20.95-0.07032-0.0684-0.32031-0.3037v-2e-3l-0.08887-0.0849v-48.219c1.6e-4 -19.404 16.416-35.018 36.521-35.019zm33.411 61.506c-2.5156 1.6737-4.8504 3.2146-7.0332 4.6211-1.4211 2.6311-3.4236 5.2528-6.2675 7.2373h-1e-3c-1.6502 1.1511-3.4912 1.7428-5.1446 2.1338-0.8326 0.1969-1.6727 0.3537-2.4482 0.4961-0.7957 0.1462-1.5199 0.277-2.2285 0.4297-2.4976 0.5383-4.029 1.2176-4.9902 2.7061l-0.6836 1.0576v21.78h1.3457v-8.6201c0-1.0991 0.6299-1.9662 1.1982-2.5644 0.5902-0.6211 1.3514-1.1947 2.0322-1.6934 0.723-0.5295 1.3658-0.9825 1.8955-1.4414 0.5535-0.4795 0.7715-0.7929 0.8301-0.959 0.0249-0.0706 0.0435-0.1882 0.0518-0.3427-1.5607-0.5477-2.6976-1.9957-2.7852-3.7217l-0.0049-0.2149 0.0049-0.2148c0.1118-2.2045 1.9348-3.957 4.167-3.957l0.2149 0.0048c2.2044 0.1119 3.957 1.9348 3.957 4.167 0 1.806-1.1474 3.3432-2.7529 3.9239-0.0113 0.4075-0.064 0.8638-0.2129 1.2861-0.3151 0.8933-1.0187 1.6081-1.6368 2.1436-0.642 0.5561-1.4215 1.1059-2.0742 1.5839-0.6947 0.5089-1.2624 0.9487-1.6572 1.3643-0.4166 0.4386-0.4287 0.632-0.4287 0.6357v8.6201h2.6973v-6.218c0-1.8344 1.0773-3.2552 2.2763-4.3366 1.2034-1.0854 2.7752-2.0469 4.1983-2.918 1.484-0.9084 2.8172-1.7249 3.7939-2.5908 0.9852-0.8734 1.3427-1.5674 1.3428-2.1748v-2.9483c-1.6176-0.5167-2.8069-1.9911-2.8965-3.7578l-0.0049-0.2148 0.0049-0.2149c0.1118-2.2044 1.9348-3.957 4.167-3.957l0.2148 0.0049c2.2044 0.1118 3.9571 1.9348 3.9571 4.167-1e-4 1.7641-1.0954 3.2707-2.6426 3.8808v3.0401c-1e-4 1.815-1.0945 3.2131-2.2861 4.2695-1.2003 1.064-2.7709 2.0154-4.1895 2.8838-1.4795 0.9057-2.8105 1.7304-3.7842 2.6084-0.9779 0.882-1.3524 1.6039-1.3525 2.2585v4.677l19.156-18.334zm-35.383 15.974 0.0254 0.0312v24.457h3.6231v-32.791l-0.2295 0.337-0.1397 0.1748c-0.6695 0.7368-1.8229 0.7482-2.5146 0.0556-0.1152-0.0622-0.227-0.1348-0.3321-0.2187l-0.0214-0.0166-0.0196-0.0176-0.0781-0.0684-0.0244-0.0215-0.0235-0.0224c-0.0898-0.0877-0.1774-0.1773-0.2656-0.2647zm-31.438 4.4287 19.154 18.332v-4.491c0-0.6546-0.3745-1.3765-1.3525-2.2585-0.9736-0.878-2.3047-1.7028-3.7842-2.6084-1.4185-0.8684-2.9892-1.8199-4.1894-2.8838-1.1917-1.0564-2.2861-2.4545-2.2862-4.2695v-2.8116c-1.5103-0.5728-2.6027-1.9956-2.6884-3.6855l-0.0049-0.2148 0.0049-0.2149c0.1117-2.2043 1.935-3.9568 4.167-3.957l0.2148 0.0049c2.2044 0.1118 3.957 1.9348 3.957 4.167 0 1.8424-1.194 3.4044-2.8506 3.957v2.7549c1e-4 0.6074 0.3577 1.3014 1.3428 2.1748 0.9767 0.8658 2.31 1.6824 3.794 2.5908 1.423 0.8711 2.9948 1.8327 4.1982 2.918 1.199 1.0814 2.2763 2.5022 2.2764 4.3366v6.218h2.2812v-8.6201c0 0.014-0.0036-0.1746-0.4404-0.6191-0.4104-0.4175-1-0.8582-1.7188-1.3672-0.6762-0.4788-1.4809-1.0271-2.1435-1.582-0.6354-0.5321-1.3636-1.247-1.6914-2.1455-0.1638-0.4492-0.216-0.9358-0.2237-1.3623-1.4583-0.5969-2.504-1.9942-2.5878-3.6465l-0.0049-0.2149 0.0049-0.2148c0.1117-2.2045 1.9347-3.957 4.1669-3.957l0.2149 0.0048c2.2044 0.1119 3.957 1.9348 3.957 4.167 0 1.8766-1.2389 3.4629-2.9433 3.9873 0.0097 0.1244 0.0246 0.219 0.0459 0.2774 0.0587 0.1609 0.2825 0.4749 0.8593 0.958 0.5497 0.4603 1.217 0.9145 1.9639 1.4434 0.7041 0.4985 1.4891 1.0712 2.0977 1.6904 0.582 0.5922 1.2421 1.4642 1.2421 2.581v8.6201h1.8389v-21.85l-0.8125-0.9844c-1.1688-1.4174-2.8061-2.0879-5.1553-2.6406-0.7014-0.165-1.4085-0.3071-2.1904-0.4698-0.7593-0.1579-1.577-0.3321-2.3896-0.5449l-0.6143-0.1689c-1.4476-0.4181-2.9837-1.0158-4.4014-2.0049h-9e-4c-2.8245-1.9711-4.824-4.5658-6.252-7.1748-2.1878-1.4219-4.5309-2.9788-7.0556-4.6748zm46.76-0.9248c-0.7877 0-1.4267 0.639-1.4267 1.4267l0.0078 0.1455c0.0729 0.7194 0.6804 1.2803 1.4189 1.2803s1.346-0.5609 1.419-1.2803l0.0068-0.1455-0.0068-0.1455c-0.0681-0.6715-0.602-1.2053-1.2735-1.2734zm-27.164 0c-0.7876 0-1.4267 0.639-1.4267 1.4267l0.0078 0.1455c0.0729 0.7194 0.6804 1.2803 1.4189 1.2803 0.7386 0 1.3461-0.5609 1.419-1.2803l0.0068-0.1455-0.0068-0.1455c-0.068-0.6715-0.602-1.2053-1.2734-1.2734zm-10.575-5.3926c-0.7875 3e-4 -1.4268 0.6392-1.4268 1.4268l0.0078 0.1455c0.0729 0.7191 0.6806 1.28 1.419 1.2802 0.7385 0 1.346-0.5609 1.4189-1.2802l0.0068-0.1455-0.0068-0.1455c-0.068-0.6715-0.602-1.2054-1.2734-1.2735zm48.728-0.209c-0.7877 0-1.4268 0.6391-1.4268 1.4268l0.0078 0.1455c0.073 0.7193 0.6804 1.2803 1.419 1.2803 0.7385-1e-4 1.346-0.561 1.4189-1.2803l0.0069-0.1455-0.0069-0.1455c-0.068-0.6715-0.6019-1.2054-1.2734-1.2735zm-49.599-16.394c1.0581 3.5744 3.03 8.0553 6.8701 10.948l0.4248 0.3076c0.9651 0.6733 2.0765 1.1247 3.2959 1.4776l0.5293 0.1455c0.7129 0.1866 1.4494 0.3449 2.2041 0.5019 0.7474 0.1555 1.5235 0.3119 2.2861 0.4913 0.4021 0.0946 0.8072 0.1977 1.2119 0.3125-2.4752-2.3265-5.0429-4.331-8.9638-6.2178-0.6959-0.3353-0.9888-1.171-0.6543-1.8672 0.3351-0.6964 1.1716-0.9893 1.8681-0.6543 4.6659 2.2453 7.6008 4.6879 10.411 7.4082v-0.6621c-0.1624-0.2713-0.3288-0.5431-0.5-0.8125-2.0213-3.1802-4.6225-6.1941-6.9307-7.8047-0.3442-0.2401-0.6993-0.462-1.0615-0.6689-1.5706 0.817-3.3609 1.5938-5.4073 2.2988h-9e-4c-1.4425 0.495-2.9601-0.6183-2.8799-2.169v-9e-4l0.0371-0.6075c0.0488-0.7006 0.1182-1.3757 0.2031-2.0263-0.6178-0.093-1.204-0.1707-1.7461-0.2403-0.4197-0.0538-0.8236-0.1075-1.1972-0.1601zm49.281 0.2549c-0.531 0.067-1.1059 0.1413-1.7119 0.2314 0.0842 0.6492 0.1528 1.3222 0.2012 2.0205l0.0361 0.6055c0.081 1.5503-1.436 2.6673-2.8809 2.1699-2.0481-0.7057-3.8389-1.4839-5.4101-2.3017-0.3564 0.2036-0.7059 0.4213-1.044 0.6572-2.2953 1.6019-4.8794 4.6031-6.8857 7.7724-0.2533 0.4002-0.4953 0.8058-0.7285 1.21v0.6699c2.8636-2.7302 5.8468-5.1798 10.6-7.4306 0.6985-0.3308 1.5334-0.0325 1.8642 0.666 0.3306 0.6985 0.0325 1.5325-0.666 1.8633-3.5626 1.6871-6.0249 3.4699-8.3037 5.4902 0.1369-0.0315 0.2738-0.0614 0.4102-0.0908 0.7782-0.1677 1.5709-0.3096 2.3418-0.4512 0.7753-0.1424 1.5314-0.2861 2.2627-0.459 1.468-0.3472 2.7811-0.8034 3.8681-1.5615 4.0981-2.8595 6.1576-7.5226 7.2412-11.218-0.3731 0.0517-0.7764 0.1035-1.1943 0.1563zm-17.117-3.5879c-0.0293 0.4023-0.0722 0.8184-0.1289 1.247-0.3192 2.4124-1.1018 5.1937-2.7129 8.3204v1.8339c2.0229-2.9325 4.5332-5.7606 7.0127-7.4912 0.0365-0.0254 0.0747-0.0491 0.1113-0.0742-1.3468-0.954-2.4689-1.931-3.4121-2.8945-0.3097-0.3165-0.599-0.6311-0.8701-0.9414zm-13.766-0.0449c-0.2634 0.3005-0.5431 0.6058-0.8428 0.9121-0.952 0.9728-2.0872 1.959-3.4511 2.9218 0.0279 0.0193 0.0561 0.0382 0.0839 0.0577 2.3542 1.6426 4.7411 4.2692 6.7159 7.038v-1.9961c-1.3999-2.8855-2.0969-5.4647-2.3868-7.7197-0.0535-0.4169-0.0915-0.822-0.1191-1.2138zm3.4473-4.1329c-0.1733 1.3262-0.2911 2.948-0.0371 4.9239 0.3183 2.4766 1.2333 5.5653 3.4726 9.2383 2.2198-3.6408 3.1396-6.7067 3.4658-9.1719 0.2621-1.9807 0.1489-3.6107-0.0215-4.9434-0.8672 0.157-1.7565 0.2546-2.6621 0.2862l-0.6562 0.0117c-1.2186-1e-4 -2.4098-0.1203-3.5615-0.3448zm36.826-4.0537c-5.9658 1.5846-10.593 1.5369-14.15 0.876-0.3697-0.0687-0.7268-0.1461-1.0722-0.2266 0.2067 0.3171 0.4126 0.6489 0.6142 0.9971 1.0473 1.8092 1.9894 4.0255 2.6338 6.7637 0.7773-0.1206 1.4946-0.2154 2.1172-0.294 0.8214-0.1037 1.3719-0.1735 1.749-0.2392l0.3233-0.0654 0.1826-0.0381c0.9142-0.1618 1.8674 0.1131 2.5537 0.7617v1e-3c0.7401 0.7003 1.0763 1.7543 0.8174 2.7793v9e-4c-0.2309 0.9123-0.5298 1.9536-0.917 3.0664 1.4297-0.9396 2.9256-1.9288 4.4922-2.9726l0.6562-0.4375zm-66.821 10.91 0.61328 0.4131c1.575 1.0599 3.0782 2.0648 4.5147 3.0176-0.3988-1.1318-0.7082-2.1905-0.9453-3.1172v-1e-3c-0.2622-1.026 0.0723-2.0838 0.8134-2.7861v-1e-3l0.1416-0.125c0.7223-0.6006 1.6926-0.8207 2.6016-0.5987h1e-3c0.367 0.0899 0.9855 0.171 2.081 0.3116 0.6484 0.0832 1.402 0.1821 2.2188 0.3115 0.6446-2.7372 1.5857-4.953 2.6328-6.7617 0.2089-0.3608 0.4224-0.704 0.6367-1.0313-0.3859 0.0922-0.7872 0.1795-1.2041 0.2569-3.5487 0.6588-8.1616 0.7063-14.105-0.8662zm46.156-11.738c-0.5984 0.6024-1.2493 1.1704-1.9531 1.6953l-0.5254 0.377c-0.977 0.6751-2.0041 1.2413-3.0635 1.7021 0.6816 1.175 1.5931 2.564 3.0293 4.0313 1.7703 1.8086 4.3777 3.767 8.3643 5.4717-0.0725-0.547-0.158-1.0714-0.2549-1.5743l-0.3526-1.8281 0.1221-0.0244c-0.5741-2.4193-1.3961-4.324-2.2725-5.8379-1.0199-1.7619-2.1275-3.0259-3.0937-4.0127zm-25.427-0.0732c-0.9661 0.9866-2.0736 2.2499-3.0937 4.0117-0.8776 1.5158-1.7002 3.424-2.2744 5.8476l0.0498 0.0108-0.3526 1.8232c-0.0975 0.5054-0.1827 1.0327-0.2558 1.5821 1.2203-0.506 2.308-1.0354 3.2803-1.5733 2.2591-1.2801 3.917-2.6261 5.1611-3.8974 1.4363-1.468 2.3479-2.8572 3.0293-4.0323-1.0604-0.461-2.0886-1.0265-3.0664-1.7021l-0.5254-0.377c-0.7033-0.5244-1.3541-1.0915-1.9522-1.6933zm12.515-24.19c-1.4557 0-2.8586 0.203-4.1787 0.5801-0.0674 0.0193-0.1357 0.0332-0.2041 0.044-1.3062 0.4313-2.5709 1.0487-3.751 1.8642l-0.4316 0.3086c-0.9875 0.7367-1.8464 1.5735-2.5733 2.4815-0.0451 0.0563-0.0947 0.1085-0.1465 0.1582-0.6483 0.9062-1.1914 1.9009-1.6045 2.9755l-0.1718 0.4776c-0.4629 1.3551-0.6892 2.7271-0.7022 4.0781-6e-4 0.06-0.0047 0.1196-0.0117 0.1787 5e-4 0.0104 0.0017 0.0209 0.0019 0.0313 0.029 1.1238 0.2059 2.2612 0.544 3.3896l0.1553 0.4824c0.4573 1.3388 1.1123 2.5613 1.9228 3.6514 0.0503 0.0484 0.0986 0.0996 0.1426 0.1543 0.8274 1.0291 1.8238 1.9648 2.9853 2.7676 1.1798 0.8153 2.4444 1.4319 3.75 1.8633 0.0735 0.0118 0.1466 0.0281 0.2188 0.0498 1.3751 0.4126 2.8421 0.6356 4.3672 0.6357 1.4467 0 2.8416-0.2012 4.1553-0.5742 0.0797-0.0226 0.1611-0.0381 0.2421-0.0488 1.2911-0.4308 2.5416-1.0429 3.709-1.8496 1.0734-0.7418 2.0047-1.5985 2.793-2.5362 0.0529-0.1209 0.1191-0.2374 0.2002-0.3457 0.8243-1.1003 1.4894-2.3368 1.9521-3.6914l0.1553-0.4824c0.2868-0.957 0.4567-1.9201 0.5195-2.876-0.0838-0.2017-0.1335-0.4174-0.1357-0.6387-0.0131-1.3502-0.2393-2.722-0.7021-4.0771-0.426-1.247-1.023-2.3933-1.7569-3.4248-0.068-0.0623-0.1333-0.1279-0.1904-0.2012-0.852-1.0934-1.8921-2.0863-3.1152-2.9316l-0.4414-0.294c-1.0159-0.6491-2.0892-1.1577-3.1924-1.5322-0.0503-0.0102-0.1008-0.0203-0.1504-0.0352-1.3719-0.4103-2.8343-0.6327-4.3545-0.6328zm17.256 15.094c-0.1417 1.0056-0.3797 2.0134-0.7207 3.0117-0.3676 1.0763-0.8401 2.094-1.3994 3.0469 1.2849 0.5736 2.897 1.1946 4.9873 1.583 2.5685 0.4772 5.9033 0.6058 10.19-0.2451-2.9161-3.0577-5.6691-4.8147-8.0274-5.8682-1.9344-0.8641-3.6301-1.2693-5.0303-1.5283zm-34.222-0.0781c-1.4002 0.2589-3.0958 0.6642-5.0303 1.5283-2.3583 1.0534-5.1122 2.8095-8.0283 5.8672 4.2865 0.8508 7.6211 0.7239 10.189 0.247 2.0904-0.3881 3.7024-1.0094 4.9873-1.583-0.5588-0.9528-1.03-1.9702-1.3974-3.0459-0.3413-0.9991-0.5791-2.0073-0.7207-3.0136zm49.813-8.9795c-3.2775 3.4767-6.4561 5.5322-9.2773 6.7802-0.3002 0.1328-0.597 0.2534-0.8877 0.3682 0.3423 0.1338 0.6921 0.2786 1.0479 0.4375 2.9878 1.3347 6.3712 3.577 9.8466 7.4512v-8.3858c0-2.2794-0.2521-4.5044-0.7295-6.6513zm-65.368 0.0332c-0.47257 2.1367-0.72361 4.3504-0.72363 6.6181v8.2578c3.4602-3.8441 6.8284-6.0723 9.8038-7.4013 0.3662-0.1636 0.7261-0.3122 1.0781-0.4492-0.3486-0.1345-0.7057-0.279-1.0684-0.4395-2.7676-1.2245-5.8781-3.2277-9.0898-6.5859zm62.75-2.1543c-4.2489-0.8434-7.5622-0.7259-10.121-0.2598-2.0995 0.3825-3.7218 1.0038-5.0147 1.5772 0.4047 0.7134 0.7603 1.462 1.0606 2.2431l0.2168 0.5967c0.3674 1.0759 0.6152 2.1625 0.7519 3.2461 1.394-0.2542 3.0824-0.6525 5.0137-1.5068 2.3729-1.0498 5.1501-2.8111 8.0928-5.8965zm-50.198-0.4209c-2.559-0.4664-5.8729-0.5847-10.122 0.2588 2.943 3.0859 5.7206 4.8464 8.0937 5.8965 1.9314 0.8544 3.6197 1.2535 5.0137 1.5078 0.1365-1.084 0.3832-2.1715 0.751-3.2481 0.3408-0.9978 0.7708-1.946 1.2773-2.8389-1.2928-0.5734-2.9146-1.1935-5.0137-1.5761zm38.714-14.712c-3.9867 1.689-6.6056 3.6345-8.3906 5.4355-1.4466 1.4596-2.3737 2.8482-3.0645 4.0264 0.9883 0.4441 1.9472 0.9809 2.8623 1.6133 0.9742 0.6732 1.855 1.4258 2.6416 2.2392 0.9633-0.9831 2.0646-2.2435 3.0801-3.9961 1.2606-2.1756 2.4108-5.1589 2.8711-9.3183zm-37.316-0.126c0.457 4.1295 1.5931 7.1002 2.8428 9.2715 1.0129 1.7597 2.1163 3.0267 3.081 4.0156 0.7502-0.7574 1.5835-1.46 2.499-2.0928 0.9728-0.6722 1.9962-1.2355 3.0508-1.6953-0.6851-1.1751-1.6037-2.5613-3.042-4.0215-1.7857-1.8128-4.4143-3.7755-8.4316-5.4775zm40.734 0.0127c-0.4734 4.779-1.7877 8.3147-3.3272 10.972-0.2107 0.3635-0.4254 0.7095-0.6416 1.039 0.3936-0.0929 0.8029-0.1802 1.2285-0.2578 3.0672-0.5588 6.9233-0.6602 11.738 0.3389-1.9768-4.6797-5.0812-8.8152-8.998-12.092zm-44.124 0.1133c-3.7927 3.2067-6.8137 7.2216-8.7714 11.758 4.6803-0.9358 8.4428-0.828 11.448-0.2803 0.4305 0.0785 0.8445 0.1666 1.2422 0.2607-0.2199-0.3365-0.4383-0.6905-0.6524-1.0625-1.4998-2.6059-2.7771-6.0511-3.2666-10.676zm22.066-5.8653c-2.2069 3.6196-3.1271 6.6706-3.4581 9.128-0.266 1.9758-0.1594 3.6058 0.0088 4.9394 0.8747-0.1595 1.7711-0.2591 2.6846-0.291l0.6592-0.0117c1.2137 0 2.3997 0.119 3.5469 0.3418 0.1709-1.3281 0.2824-2.9512 0.0234-4.9229-0.324-2.467-1.2416-5.5369-3.4648-9.1836zm2.6416-2.0449c2.5869 4.1496 3.7151 7.7651 4.1132 10.796 0.0598 0.4548 0.1019 0.8952 0.1309 1.3203 0.2848-0.3235 0.5898-0.6513 0.917-0.9814 2.1908-2.2103 5.329-4.4847 9.9678-6.3819-4.444-2.6592-9.5929-4.3498-15.129-4.7529zm-5.2862 0.00976c-5.4642 0.41737-10.548 2.0889-14.945 4.708 4.5536 1.8932 7.6407 4.1488 9.7988 6.3398 0.3254 0.3303 0.6281 0.6589 0.9112 0.9824 0.0305-0.4218 0.073-0.8586 0.1338-1.3095 0.406-3.0156 1.5368-6.6045 4.1015-10.721z" fill="#006793"/>
 <path d="m146.61 60.031c0 1.8891-0.332 3.6267-0.995 5.213-0.649 1.5862-1.551 2.9561-2.704 4.1097-1.154 1.1392-2.524 2.0333-4.11 2.6822s-3.309 0.9734-5.17 0.9734h-15.184c-0.404 0-0.779-0.0721-1.125-0.2163s-0.649-0.3389-0.909-0.584c-0.245-0.2596-0.439-0.5624-0.584-0.9085-0.144-0.3461-0.216-0.721-0.216-1.1248v-25.351c0-0.3893 0.072-0.7571 0.216-1.1032 0.145-0.346 0.339-0.6489 0.584-0.9084 0.26-0.2596 0.563-0.4615 0.909-0.6057s0.721-0.2163 1.125-0.2163h15.184c1.861 0 3.584 0.3245 5.17 0.9734s2.956 1.5502 4.11 2.7038c1.153 1.1392 2.055 2.5091 2.704 4.1098 0.663 1.5862 0.995 3.3166 0.995 5.1913zm-5.624-5.0615c0-1.096-0.181-2.0982-0.541-3.0066-0.346-0.9085-0.844-1.68-1.493-2.3145-0.649-0.6489-1.427-1.1464-2.336-1.4925-0.894-0.3605-1.889-0.5408-2.985-0.5408h-12.394v19.77h12.394c1.096 0 2.091-0.1731 2.985-0.5192 0.909-0.3605 1.687-0.858 2.336-1.4925 0.649-0.6489 1.147-1.4204 1.493-2.3144 0.36-0.9085 0.541-1.9179 0.541-3.0283zm41.53 15.206c0 0.4038-0.072 0.7787-0.216 1.1248s-0.346 0.6489-0.606 0.9085c-0.259 0.2451-0.562 0.4398-0.908 0.584s-0.714 0.2163-1.103 0.2163h-12.676c-1.197 0-2.408-0.1298-3.634-0.3894-1.226-0.2595-2.415-0.6561-3.569-1.1896-1.139-0.548-2.213-1.2402-3.223-2.0766-1.009-0.8363-1.896-1.8241-2.66-2.9633-0.75-1.1537-1.341-2.4659-1.774-3.9368-0.433-1.4853-0.649-3.1364-0.649-4.9534v-15.509h5.624v15.509c0 1.5863 0.216 2.9274 0.649 4.0233 0.447 1.096 1.009 2.0116 1.687 2.7471 0.678 0.7354 1.42 1.3122 2.228 1.7304s1.572 0.7282 2.293 0.9301c0.735 0.2019 1.377 0.3317 1.925 0.3894 0.562 0.0432 0.93 0.0649 1.103 0.0649h9.885v-25.394h5.624zm37.551-17.759c0 1.2834-0.159 2.4298-0.476 3.4392-0.318 1.0095-0.75 1.9035-1.298 2.6822-0.534 0.7643-1.154 1.4204-1.86 1.9684-0.707 0.548-1.45 1.0022-2.228 1.3627-0.765 0.3461-1.543 0.5984-2.336 0.7571-0.779 0.1586-1.514 0.2379-2.207 0.2379l11.746 10.145h-8.696l-11.723-10.145h-4.045v-5.6239h12.718c0.707-0.0577 1.349-0.2019 1.925-0.4326 0.592-0.2452 1.096-0.5696 1.515-0.9734 0.432-0.4038 0.764-0.8868 0.995-1.4492 0.23-0.5768 0.346-1.233 0.346-1.9684v-3.5474c0-0.3173-0.044-0.5552-0.13-0.7138-0.072-0.1731-0.173-0.2956-0.303-0.3677-0.115-0.0865-0.245-0.137-0.389-0.1514-0.13-0.0145-0.253-0.0217-0.368-0.0217h-18.559v25.394h-5.624v-28.184c0-0.3893 0.072-0.7571 0.216-1.1032 0.145-0.346 0.339-0.6489 0.584-0.9084 0.26-0.2596 0.563-0.4615 0.909-0.6057s0.721-0.2163 1.125-0.2163h21.349c1.255 0 2.314 0.2307 3.18 0.6922 0.865 0.447 1.564 1.0166 2.098 1.7088 0.548 0.6777 0.937 1.4132 1.168 2.2063 0.245 0.7931 0.368 1.5358 0.368 2.2279zm11.312 2.2496h19.749v-12.676h5.624v31.018h-5.624v-12.676h-19.749v12.676h-5.624v-31.018h5.624zm62.404 18.343h-5.624v-7.6139h-19.77v7.6139h-5.624v-15.509c0-2.2639 0.389-4.3477 1.168-6.2512 0.779-1.9034 1.86-3.5401 3.245-4.9101 1.384-1.3699 3.021-2.437 4.91-3.2013s3.951-1.1464 6.186-1.1464h12.676c0.389 0 0.757 0.0721 1.103 0.2163s0.649 0.3461 0.908 0.6057c0.26 0.2595 0.462 0.5624 0.606 0.9084 0.144 0.3461 0.216 0.7139 0.216 1.1032zm-25.394-13.238h19.77v-12.156h-9.885c-0.173 0-0.541 0.0289-1.103 0.0866-0.548 0.0432-1.19 0.1658-1.925 0.3677-0.721 0.2019-1.485 0.5119-2.293 0.9301-0.807 0.4182-1.55 0.995-2.228 1.7304-0.678 0.7355-1.24 1.6584-1.687 2.7687-0.433 1.096-0.649 2.4298-0.649 4.0016zm59.722 13.238h-20.29c-0.519 0-1.081-0.0577-1.687-0.1731-0.591-0.1297-1.182-0.3244-1.773-0.584-0.577-0.2595-1.132-0.5912-1.666-0.995-0.534-0.4182-1.009-0.9157-1.428-1.4925-0.403-0.5912-0.728-1.269-0.973-2.0332-0.245-0.7787-0.368-1.6512-0.368-2.6173v-15.228c0-0.5191 0.058-1.0743 0.173-1.6655 0.13-0.6057 0.325-1.1969 0.584-1.7737 0.26-0.5912 0.599-1.1536 1.017-1.6872 0.418-0.5335 0.916-1.0022 1.492-1.406 0.592-0.4182 1.269-0.7498 2.034-0.995 0.764-0.2451 1.629-0.3677 2.595-0.3677h20.29v5.6239h-20.29c-0.735 0-1.297 0.1947-1.687 0.5841-0.389 0.3893-0.584 0.9661-0.584 1.7304v15.185c0 0.721 0.195 1.2834 0.584 1.6871 0.404 0.3894 0.966 0.5841 1.687 0.5841h20.29zm37.831 0h-7.981l-12.654-12.676h-3.958v-5.6671h3.958l12.654-12.676h7.981l-15.941 15.509zm-26.843 0h-5.624v-31.018h5.624zm58.467-19.943 9.474-11.075h7.679l-13.346 15.552 13.26 15.466h-7.636l-9.431-10.988-9.387 10.988h-7.658l13.238-15.466-13.281-15.552h7.614z" fill="#066e9b"/>
</svg>
