<?xml version="1.0" encoding="UTF-8"?>
<svg width="1838" height="1838" fill="none" version="1.1" viewBox="0 0 1838 1838" xmlns="http://www.w3.org/2000/svg">
 <g transform="translate(-.0015)" mask="url(#mask216)">
  <path d="m-25.459-45.654h1891.5v1934.1h-1891.5z" fill="url(#paint0_linear_4210_1874)"/>
  <g opacity=".6">
   <g fill="url(#paint1_radial_4210_1874)">
    <path d="m2049.4 1670.5c10.41 74.83 79.13 127.11 153.48 116.77s126.18-79.39 115.78-154.22c-10.41-74.84-79.13-127.12-153.48-116.78-74.35 10.35-126.18 79.39-115.78 154.23z"/>
    <path d="m1892.9 1787.9c8.31 59.7 66.31 100.97 129.56 92.18 63.25-8.8 107.79-64.33 99.48-124.04-8.3-59.71-66.31-100.98-129.55-92.18-63.25 8.8-107.79 64.33-99.49 124.04z"/>
    <path d="m1598.6 1871.4c9.81 70.48 94.99 116.88 190.26 103.63s164.56-81.13 154.75-151.62c-9.8-70.49-94.98-116.89-190.26-103.64-95.27 13.25-164.55 81.14-154.75 151.63z"/>
    <path d="m1416 1782.2c-11.76 56.13 27.31 111.82 87.26 124.38 59.96 12.56 118.09-22.77 129.85-78.9 11.76-56.14-27.31-111.83-87.26-124.39-59.96-12.56-118.09 22.77-129.85 78.91z"/>
    <path d="m2135.2 1474.3c-8.04 37.32 43.9 80.18 116.01 95.72s137.09-2.12 145.13-39.45c8.05-37.32-43.89-80.18-116-95.72s-137.09 2.12-145.14 39.45z"/>
    <path d="m2069.4 1499.2c4.36 31.38 32.03 53.46 61.81 49.32 29.77-4.14 50.37-32.94 46-64.32-4.36-31.38-32.04-53.47-61.81-49.32-29.77 4.14-50.37 32.93-46 64.32z"/>
    <path d="m1987.7 1500.3c5.35 38.46 37.6 65.76 72.04 60.97s58.02-39.86 52.67-78.32c-5.35-38.47-37.6-65.76-72.04-60.97s-58.02 39.85-52.67 78.32z"/>
    <path d="m1807.6 1370.9c12.38 88.99 85.69 152.34 163.74 141.48 78.05-10.85 131.29-91.8 118.91-180.8-12.38-88.99-85.69-152.34-163.74-141.48-78.05 10.85-131.29 91.8-118.91 180.8z"/>
    <path d="m1613.4 1316.2c13.34 95.92 106.08 162.27 207.15 148.22 101.07-14.06 172.18-103.21 158.84-199.13s-106.09-162.28-207.15-148.22c-101.07 14.06-172.19 103.21-158.84 199.13z"/>
    <path d="m1577.6 1443c6.04 43.45 41.08 74.48 78.26 69.31 37.17-5.17 62.41-44.59 56.37-88.04-6.05-43.45-41.08-74.48-78.26-69.31s-62.41 44.58-56.37 88.04z"/>
    <path d="m1377.3 1549.2c10.52 75.64 84.02 127.92 164.16 116.77 80.15-11.15 136.59-81.5 126.07-157.14s-84.02-127.92-164.17-116.77c-80.14 11.15-136.58 81.5-126.06 157.14z"/>
    <path d="m1254.7 1641.7c10.52 75.64 84.02 127.92 164.17 116.77 80.14-11.15 136.58-81.5 126.06-157.14s-84.02-127.92-164.16-116.77c-80.15 11.14-136.59 81.5-126.07 157.14z"/>
    <path d="m1181.4 1682.5c4.54 32.67 37.06 55.15 72.63 50.2 35.56-4.95 60.71-35.44 56.17-68.11-4.55-32.67-37.06-55.15-72.63-50.2s-60.71 35.44-56.17 68.11z"/>
    <path d="m1105.4 1708.6c3.38 24.3 29.09 40.81 57.41 36.87s48.55-26.84 45.17-51.14-29.09-40.81-57.41-36.87-48.55 26.84-45.17 51.14z"/>
    <path d="m874.69 1788.2c-92.181 39.86 76.602 96.58 153.05 85.95 76.44-10.64 131.86-66.35 123.78-124.45s-28.48-81.59-104.92-70.95c-66.834 14.94-79.726 69.6-171.91 109.45z"/>
    <path d="m719.97 1796.9c-153.69 21.38-301.71 107.32-301.71 107.32s159.58-22.29 313.27-43.67 276-35.65 272.7-59.39c-3.3-23.73-130.57-25.63-284.26-4.26z"/>
    <path d="m1480.4 1705.1c9.38 67.44 181.23 99.25 383.85 71.07s359.27-105.69 349.89-173.12c-9.38-67.44-181.24-99.25-383.85-71.07-202.62 28.18-359.27 105.69-349.89 173.12z"/>
    <path d="m1546.5 1612.2c12.42 89.32 140.17 145.36 285.34 125.17 145.16-20.2 252.76-108.97 240.34-198.29s-140.17-145.36-285.33-125.16c-145.17 20.19-252.77 108.96-240.35 198.28z"/>
    <path d="m1084.1 1781.6c3.92 28.17 84.87 9.29 180.63-4.03 95.75-13.32 170.05-16.04 166.13-44.2s-84.72-40.2-180.47-26.88c-95.76 13.32-170.21 46.95-166.29 75.11z"/>
    <path d="m737.74 1841.4c4.254 30.58 32.75 51.88 63.65 47.59 30.899-4.3 52.5-32.57 48.247-63.15s-32.75-51.88-63.649-47.58c-30.9 4.29-52.501 32.57-48.248 63.14z"/>
    <path d="m730.4 1788.6c4.052 29.13 12.948 20.48 63.068 13.51 30.899-4.3 52.88 0.06 48.829-29.07-4.052-29.13-32.385-49.26-63.285-44.96-30.899 4.29-52.663 31.39-48.612 60.52z"/>
    <path d="m682.44 1853.8c4.253 30.57 32.75 51.88 63.649 47.58s52.5-32.57 48.247-63.15c-4.253-30.57-32.75-51.88-63.649-47.58s-52.5 32.57-48.247 63.15z"/>
    <path d="m676.36 1810.2c4.052 29.12 12.948 20.47 63.068 13.5 30.899-4.3 52.881 0.06 48.829-29.07s-32.385-49.26-63.285-44.96c-30.899 4.3-52.663 31.4-48.612 60.53z"/>
    <path d="m607.46 1853c4.253 30.58 32.75 51.88 63.649 47.58s52.5-32.57 48.247-63.15c-4.253-30.57-32.75-51.88-63.649-47.58s-52.5 32.57-48.247 63.15z"/>
    <path d="m601.39 1809.3c4.052 29.13 12.948 20.47 63.068 13.5 30.899-4.3 52.88 0.06 48.829-29.07-4.052-29.13-32.385-49.26-63.285-44.96-30.899 4.3-52.663 31.4-48.612 60.53z"/>
   </g>
   <g fill="url(#paint26_radial_4210_1874)">
    <path d="m-218.31 199.54c-12.369-74.535-82.428-125-156.48-112.71-74.054 12.288-124.06 82.672-111.69 157.21s82.427 125 156.48 112.71c74.055-12.289 124.06-82.673 111.69-157.21z"/>
    <path d="m-64.903 78.061c-9.8678-59.468-68.935-99.203-131.93-88.75-62.995 10.453-106.06 67.135-96.195 126.6 9.868 59.468 68.935 99.203 131.93 88.75 62.995-10.453 106.06-67.136 96.195-126.6z"/>
    <path d="m227.15-13.049c-11.65-70.208-98.02-114.36-192.91-98.611-94.893 15.746-162.37 85.425-150.72 155.63 11.65 70.207 98.02 114.36 192.91 98.611 94.893-15.746 162.37-85.425 150.72-155.63z"/>
    <path d="m412.01 71.321c10.283-56.427-30.234-111.07-90.498-122.06-60.264-10.982-117.45 25.859-127.74 82.286-10.283 56.427 30.235 111.07 90.499 122.06s117.45-25.859 127.74-82.286z"/>
    <path d="m-298.88 397.9c7.062-37.525-45.981-79.005-118.48-92.649s-136.99 5.715-144.05 43.24c-7.062 37.525 45.982 79.005 118.48 92.649 72.495 13.644 136.99-5.716 144.05-43.24z"/>
    <path d="m-233.82 371.27c-5.186-31.257-33.43-52.607-63.084-47.686-29.654 4.92-49.489 34.248-44.302 65.505s33.43 52.606 63.084 47.686c29.654-4.921 49.489-34.248 44.302-65.505z"/>
    <path d="m-152.17 368.1c-6.357-38.309-39.318-64.751-73.62-59.059s-56.957 41.362-50.6 79.672c6.357 38.309 39.318 64.751 73.62 59.059 34.303-5.692 56.957-41.362 50.6-79.672z"/>
    <path d="m31.342 492.73c-14.709-88.641-89.654-150.04-167.4-137.14-77.741 12.9-128.84 95.215-114.13 183.86 14.709 88.641 89.654 150.04 167.4 137.14 77.741-12.9 128.84-95.215 114.13-183.86z"/>
    <path d="m226.85 542.3c-15.853-95.534-110.31-159.44-210.97-142.74-100.66 16.704-169.42 107.69-153.56 203.22 15.853 95.534 110.31 159.44 210.97 142.74 100.66-16.704 169.42-107.69 153.56-203.22z"/>
    <path d="m259.35 414.63c-7.181-43.279-43.02-73.383-80.047-67.239-37.027 6.145-61.222 46.21-54.041 89.488 7.182 43.279 43.02 73.383 80.047 67.239 37.028-6.145 61.223-46.21 54.041-89.488z"/>
    <path d="m456.76 303.14c-12.501-75.337-87.346-125.67-167.17-112.43-79.826 13.246-134.4 85.057-121.9 160.39 12.502 75.337 87.347 125.67 167.17 112.43s134.4-85.056 121.9-160.39z"/>
    <path d="m576.87 207.46c-12.501-75.337-87.347-125.67-167.17-112.43-79.825 13.246-134.4 85.056-121.9 160.39s87.346 125.67 167.17 112.43c79.825-13.245 134.4-85.056 121.9-160.39z"/>
    <path d="m649.12 164.76c-5.399-32.54-38.494-54.153-73.918-48.274-35.425 5.878-59.765 37.021-54.365 69.56 5.399 32.54 38.493 54.153 73.918 48.274 35.424-5.878 59.764-37.021 54.365-69.56z"/>
    <path d="m724.4 136.76c-4.017-24.204-30.142-40.03-58.354-35.349-28.211 4.682-47.825 28.098-43.809 52.302 4.017 24.204 30.142 40.03 58.354 35.349 28.211-4.681 47.825-28.097 43.809-52.302z"/>
    <path d="m952.94 51.119c91.1-42.256-79.108-94.532-155.25-81.898-76.139 12.634-130.08 69.785-120.48 127.65 9.602 57.865 30.606 80.81 106.74 68.176 66.42-16.687 77.873-71.672 168.98-113.93z"/>
    <path d="m1107.4 38.315c153.08-25.401 298.8-115.19 298.8-115.19s-158.94 26.466-312.02 51.868c-153.08 25.401-274.98 42.881-271.05 66.518 3.923 23.637 131.2 22.206 284.27-3.1954z"/>
    <path d="m349.64 150.04c-11.145-67.162-183.78-94.461-385.58-60.974-201.81 33.486-356.37 115.08-345.22 182.24 11.144 67.162 183.78 94.461 385.58 60.974 201.81-33.487 356.37-115.08 345.23-182.24z"/>
    <path d="m286.02 244.69c-14.762-88.961-143.94-141.63-288.52-117.64-144.58 23.991-249.82 115.56-235.06 204.52 14.762 88.962 143.94 141.63 288.52 117.64 144.58-23.991 249.82-115.56 235.06-204.52z"/>
    <path d="m743.8 63.159c-4.655-28.051-85.089-7.0547-180.46 8.7711-95.374 15.826-169.57 20.488-164.92 48.539 4.654 28.051 85.743 37.962 181.12 22.136 95.373-15.826 168.92-51.395 164.26-79.446z"/>
    <path d="m1088.4-5.6631c-5.05-30.455-34.09-51.004-64.87-45.898-30.777 5.1068-51.629 33.936-46.575 64.391 5.054 30.455 34.095 51.004 64.875 45.898 30.78-5.1069 51.63-33.936 46.57-64.391z"/>
    <path d="m1097.2 46.869c-4.81-29.013-13.48-20.13-63.4-11.847-30.77 5.1069-52.862 1.3272-48.048 30.34s33.668 48.393 64.438 43.286c30.78-5.107 51.83-32.766 47.01-61.779z"/>
    <path d="m1143.4-19.553c-5.05-30.455-34.1-51.004-64.88-45.898-30.77 5.1068-51.62 33.936-46.57 64.391 5.05 30.455 34.1 51.004 64.88 45.898 30.77-5.1068 51.62-33.936 46.57-64.391z"/>
    <path d="m1150.6 23.914c-4.81-29.013-13.48-20.13-63.4-11.847-30.77 5.1068-52.86 1.3273-48.05 30.34 4.82 29.013 33.67 48.392 64.44 43.286 30.78-5.1068 51.83-32.766 47.01-61.779z"/>
    <path d="m1218.4-20.661c-5.06-30.455-34.1-51.004-64.88-45.898-30.77 5.1069-51.62 33.936-46.57 64.391s34.1 51.004 64.87 45.898c30.78-5.1068 51.63-33.936 46.58-64.391z"/>
    <path d="m1225.6 22.807c-4.81-29.013-13.48-20.13-63.4-11.846-30.77 5.1068-52.86 1.3272-48.05 30.34 4.82 29.013 33.67 48.392 64.44 43.286 30.78-5.1068 51.83-32.766 47.01-61.779z"/>
   </g>
  </g>
  <g fill="#f4fbfd" filter="url(#filter0_ii_4210_1874)">
   <path d="m894.61 516.9c63.369 30.167 30.247 129.15-20.27 245.46-33.678 77.54-94.894 164.07-21.434 228.54-124.47-74.478-174.19-264.81-152.02-359.13 26.138-111.21 129.44-140.37 193.72-114.87z"/>
   <path d="m1284.8 1099.1c-57.81 39.79-126.97-38.38-202.44-140.28-50.31-67.936-94.639-164.21-187.2-132.83 126.74-70.553 316.42-18.446 387.02 47.915 83.24 78.242 56.84 182.28 2.62 225.2z"/>
   <path d="m592.08 1140.7c-5.558-69.97 96.724-90.77 222.71-105.18 83.99-9.6 189.53 0.15 208.64-95.705-2.27 145.04-142.24 283.26-235.01 311.22-109.38 32.97-186.28-41.91-196.34-110.33z"/>
   <circle cx="921.21" cy="923.56" r="64.277"/>
   <path d="m1154.9 414.43c97.69 3.051 185.69 52.995 185.69 124.46 0 51.139-10.5 110.88-72.69 166.31-147.21 131.22-262.47-17.521-379.82 89.651 2.592-11.307 6.898-32.938 33.803-52.996 79.919-59.585 282.74 36.381 324.85-84.599-50.99 53.088-213.86 72.836-276.44-43.737-26.701-49.738-4.429-104.11-106.28-128.05-120.6-28.349-269.56 120.03-165 328.57-59.178-45.909-216.28-328.57 102.88-382.27 100.98-10.401 197.13 33.072 219.97 107.12 30.65 99.403 104.56 108.98 133.04 102.03 113-27.546 160.3-164.24 0-226.5z"/>
   <path d="m365.59 975c-46.199-86.122-46.947-187.3 14.945-223.04 44.288-25.57 101.27-46.346 180.37-20.206 187.25 61.881 116.06 236.07 267.55 284.11-11.088 3.41-31.973 10.5-62.797-2.77-91.564-39.426-109.86-263.05-235.69-239.03 71.47 17.613 170 148.78 100.34 261.27-29.723 47.99-87.946 55.89-57.755 156.06 35.751 118.62 238.73 173.44 367.06-21.39-10.17 74.21-176.41 351.59-382.5 102.04-59.5-82.25-69.924-187.25-17.215-244.05 70.76-76.248 42.099-145.04 21.84-166.24-80.354-84.086-222.38-56.694-196.15 113.25z"/>
   <path d="m1249.6 1376.8c-51.48 83.07-138.74 134.31-200.63 98.58-44.29-25.57-90.772-64.53-107.68-146.11-40.035-193.1 146.41-218.55 112.27-373.76 8.49 7.898 25.07 22.442 28.99 55.772 11.64 99.01-172.87 226.67-89.156 323.63-20.481-70.71 43.846-221.63 176.1-217.54 56.42 1.75 92.37 48.22 164.03-28.01 84.85-90.27 30.84-293.46-202.05-307.18 69.35-28.295 392.69-23.017 279.62 280.24-41.49 92.65-127.21 154.18-202.75 136.93-101.41-23.15-146.66 36.07-154.89 64.21-32.64 111.63 62.09 220.94 196.15 113.25z"/>
  </g>
 </g>
 <defs>
  <filter id="filter0_ii_4210_1874" x="332.35" y="414.43" width="1102.5" height="1075" color-interpolation-filters="sRGB" filterUnits="userSpaceOnUse">
   <feFlood flood-opacity="0" result="BackgroundImageFix"/>
   <feBlend in="SourceGraphic" in2="BackgroundImageFix" result="shape"/>
   <feColorMatrix in="SourceAlpha" result="hardAlpha" values="0 0 0 0 0 0 0 0 0 0 0 0 0 0 0 0 0 0 127 0"/>
   <feOffset dy="25.3208"/>
   <feGaussianBlur stdDeviation="1.26604"/>
   <feComposite in2="hardAlpha" k2="-1" k3="1" operator="arithmetic"/>
   <feColorMatrix values="0 0 0 0 1 0 0 0 0 1 0 0 0 0 1 0 0 0 0.64 0"/>
   <feBlend in2="shape" result="effect1_innerShadow_4210_1874"/>
   <feColorMatrix in="SourceAlpha" result="hardAlpha" values="0 0 0 0 0 0 0 0 0 0 0 0 0 0 0 0 0 0 127 0"/>
   <feOffset dx="9.90877" dy="-19.8175"/>
   <feComposite in2="hardAlpha" k2="-1" k3="1" operator="arithmetic"/>
   <feColorMatrix values="0 0 0 0 0 0 0 0 0 0 0 0 0 0 0 0 0 0 0.26 0"/>
   <feBlend in2="effect1_innerShadow_4210_1874" result="effect2_innerShadow_4210_1874"/>
  </filter>
  <linearGradient id="paint0_linear_4210_1874" x1="1373.9" x2="466.48" y1="1689.1" y2="170.4" gradientUnits="userSpaceOnUse">
   <stop stop-color="#E2D4FF" offset="0"/>
   <stop stop-color="#BEB7D9" offset=".2"/>
   <stop stop-color="#B9ABEC" offset=".5"/>
   <stop stop-color="#BEB7D9" offset=".80288"/>
   <stop stop-color="#E2D4FF" offset="1"/>
  </linearGradient>
  <radialGradient id="paint1_radial_4210_1874" cx="0" cy="0" r="1" gradientTransform="matrix(259.84 418.7 -989.19 613.88 1593.2 1596.8)" gradientUnits="userSpaceOnUse">
   <stop stop-color="#B4D4DD" offset="0"/>
   <stop stop-color="#F4FBFD" offset=".41827"/>
   <stop stop-color="#F4FBFD" offset="1"/>
  </radialGradient>
  <radialGradient id="paint26_radial_4210_1874" cx="0" cy="0" r="1" gradientTransform="matrix(-270.73 -411.74 972.75 -639.61 239.66 261.25)" gradientUnits="userSpaceOnUse">
   <stop stop-color="#B4D4DD" offset="0"/>
   <stop stop-color="#F4FBFD" offset=".41827"/>
   <stop stop-color="#F4FBFD" offset="1"/>
  </radialGradient>
  <mask id="mask216" maskUnits="userSpaceOnUse">
   <path d="m919 0 795.88 459.5v919l-795.88 459.5-795.88-459.5v-919z" fill="#fff"/>
  </mask>
 </defs>
</svg>
